<?xml version="1.0" encoding="utf-8"?>
<!-- Generator: Adobe Illustrator 26.3.1, SVG Export Plug-In . SVG Version: 6.00 Build 0)  -->
<svg version="1.1" id="Layer_2_00000176024398885537730750000016613474745021157513_"
	 xmlns="http://www.w3.org/2000/svg" xmlns:xlink="http://www.w3.org/1999/xlink" x="0px" y="0px" viewBox="0 0 234.2 76"
	 style="enable-background:new 0 0 234.2 76;" xml:space="preserve">
<style type="text/css">
	.st0{fill:#B6B6B6;}
	.st1{fill:#FFFFFF;}
	.st2{fill:#1A1A1A;}
</style>
<g id="Layer_1-2">
	<g>
		<g>
			<path class="st0" d="M76.1,37.6c0,5.1-2.1,10-3.9,14.4c-1.9,4.6-4.7,8.8-8.2,12.3c-3.5,3.5-7.6,6.4-12.2,8.3
				c-4.4,1.8-9.4,3.3-14.5,3.3s-10.2-1.2-14.6-3.1c-4.6-1.9-7.7-6-11.2-9.5s-7.3-6.7-9.2-11.3c-1.8-4.4-2.2-9.4-2.2-14.5
				s-0.6-10.5,1.2-14.9c1.9-4.6,5.9-8.3,9.4-11.7c3.5-3.5,7.3-7.1,11.9-9c4.4-1.8,9.7-2,14.8-2s10,0.9,14.4,2.8s9,4.5,12.5,7.9
				s6.5,7.7,8.4,12.3C74.4,27.4,76.1,32.5,76.1,37.6z"/>
			<polygon class="st1" points="48,15.9 39.9,17.1 42.2,32.7 25.4,19.7 20.4,26.2 35.2,37.6 20.4,49 25.4,55.5 42.2,42.5 39.9,58.1 
				48,59.3 51.2,37.6 			"/>
		</g>
		<path class="st2" d="M134.3,38.7c-0.6,0.3-0.9,0.3-1.2-0.3l-1.6-3.5c-0.2-0.5-0.2-0.8,0.3-1.1c2.6-1.6,6.4-2.8,10.4-2.8
			c2.6,0,5.9,0.5,8.1,2.9c1.4,1.6,2.2,3.6,2.2,6.8v15.5c0,0.5-0.4,0.8-0.8,0.8h-4.9c-0.5,0-0.9-0.4-0.9-0.8v-0.5h-0.2
			c-2.3,1.5-4.2,1.8-6.8,1.8c-2.3,0-4.4-0.7-5.9-2.1c-1.6-1.3-2.5-3.3-2.5-5.8c0-3.3,2-5.2,4.6-6.5c3.1-1.3,7.1-1.8,10.1-2v-0.6
			c0-1.3-0.2-2.2-0.8-2.9c-0.6-0.8-1.8-1.1-3.1-1.1C138.7,36.7,136.2,37.6,134.3,38.7L134.3,38.7z M145.2,51.1v-4.9
			c-3.4,0.1-7.7,0.6-7.7,3.3c0,1.8,1.7,2.6,3.8,2.6C142.5,52.2,143.9,51.9,145.2,51.1z"/>
		<path class="st2" d="M169.9,49.9c0-1.2-1-1.7-2.4-2.3c-1.6-0.7-3.6-1.3-5.4-2.2c-2.7-1.3-4.1-3.5-4.1-6.7c0-4.7,3.6-7.6,10.2-7.6
			c4.1,0,6.6,0.8,8.7,2c0.6,0.3,0.6,0.7,0.3,1.1l-2,4.1c-0.2,0.5-0.6,0.5-1,0.3c-2.2-1.2-4.1-1.6-5.8-1.6c-1.5,0-2.6,0.5-2.6,1.8
			c0,1.1,1.2,1.7,2.5,2.2c1.8,0.7,3.4,1.2,5.2,2.1c3,1.5,4.2,3.7,4.2,6.5c0,4.7-4.1,8.2-10.6,8.2c-4.6,0-7.3-1-9.2-2.1
			c-0.5-0.3-0.6-0.7-0.4-1.1l2.1-4.3c0.2-0.5,0.6-0.6,1.1-0.3c2.2,1.3,3.9,2.1,6.3,2.1C168.8,51.9,169.9,51.2,169.9,49.9L169.9,49.9
			z"/>
		<path class="st2" d="M192.9,31c4.7,0,8.8,1.3,11.5,4c2.2,2.2,3.6,5.3,3.6,9.3s-1.2,7-3,9.1c-2.6,3-6.7,4.2-10.6,4.2
			c-1.4,0-2.7-0.1-3.9-0.5v12.1c0,0.5-0.4,0.9-0.8,0.9H184c-0.5,0-0.8-0.4-0.8-0.9V32.9c0-0.5,0.3-0.8,0.8-1
			C186.2,31.3,189.7,31,192.9,31z M190.5,51.1c0.9,0.3,1.9,0.5,3.1,0.5c1.8,0,3.7-0.4,5.1-1.6c1.2-1.1,2-3,2-5.6
			c0-2.2-0.7-4-1.8-5.2c-1.2-1.3-3.1-2.1-5.2-2.1c-1,0-2.2,0.1-3.2,0.2L190.5,51.1L190.5,51.1z"/>
		<path class="st2" d="M216,38.7c-0.6,0.3-0.9,0.3-1.2-0.3l-1.6-3.5c-0.2-0.5-0.2-0.8,0.3-1.1c2.6-1.6,6.4-2.8,10.4-2.8
			c2.6,0,5.9,0.5,8.1,2.9c1.4,1.6,2.2,3.6,2.2,6.8v15.5c0,0.5-0.4,0.8-0.8,0.8h-4.9c-0.5,0-0.9-0.4-0.9-0.8v-0.5h-0.2
			c-2.3,1.5-4.2,1.8-6.8,1.8c-2.3,0-4.4-0.7-5.9-2.1c-1.6-1.3-2.5-3.3-2.5-5.8c0-3.3,2-5.2,4.6-6.5c3.1-1.3,7.1-1.8,10.1-2v-0.6
			c0-1.3-0.2-2.2-0.8-2.9c-0.6-0.8-1.8-1.1-3.1-1.1C220.3,36.7,217.9,37.6,216,38.7L216,38.7z M226.8,51.1v-4.9
			c-3.4,0.1-7.7,0.6-7.7,3.3c0,1.8,1.7,2.6,3.8,2.6C224.2,52.2,225.5,51.9,226.8,51.1z"/>
		<path class="st2" d="M128.8,55.8c0.6,0.6,0.3,1.3-0.4,1.3h-8.1c-0.7,0-1.2-0.3-1.7-0.8l-11.4-11.2v11.2c0,0.5-0.3,0.8-0.8,0.8H100
			c-0.5,0-0.9-0.4-0.9-0.8V19.9c0-0.4,0.4-0.8,0.9-0.8h6.3c0.5,0,0.8,0.4,0.8,0.8v11.2l11.4-11.2c0.5-0.6,1.1-0.8,1.7-0.8h8.1
			c0.7,0,1,0.7,0.4,1.3l-18.1,17.7L128.8,55.8z"/>
	</g>
</g>
</svg>
