<?xml version="1.0" encoding="UTF-8"?><svg id="Layer_2" xmlns="http://www.w3.org/2000/svg" viewBox="0 0 291.78 133.6"><defs><style>.cls-1{fill:none;}.cls-2{fill:#fff;}.cls-3{fill:#1a1a1a;}.cls-4{fill:#6fc7ba;}</style></defs><g id="Layer_1-2"><g><g><g><path class="cls-4" d="m104.93,66.42c0,5.09-2.1,10.01-3.94,14.44-1.9,4.59-4.69,8.81-8.15,12.27-3.46,3.46-7.6,6.43-12.19,8.33-4.43,1.84-9.42,3.34-14.51,3.34s-10.19-1.25-14.62-3.09-7.72-6.04-11.18-9.5-7.33-6.7-9.23-11.29c-1.84-4.43-2.21-9.42-2.21-14.51s-.6-10.49,1.24-14.91c1.9-4.59,5.92-8.26,9.38-11.71,3.46-3.46,7.29-7.07,11.88-8.97,4.43-1.84,9.66-2.02,14.75-2.02s10.01.92,14.44,2.76c4.59,1.9,9.01,4.49,12.47,7.95,3.46,3.46,6.46,7.71,8.36,12.3,1.84,4.43,3.52,9.52,3.52,14.61Z"/><polygon class="cls-3" points="76.8 44.72 68.73 45.92 71.03 61.52 54.15 48.52 49.18 55.01 63.99 66.42 49.18 77.82 54.15 84.31 71.03 71.31 68.73 86.92 76.8 88.11 80 66.42 76.8 44.72"/></g><g><path class="cls-2" d="m171.01,59.8c-4.02,0-7.82,1.17-10.39,2.79-.5.34-.56.62-.33,1.12l1.62,3.52c.28.61.67.61,1.23.28,1.9-1.06,4.36-2.01,6.98-2.01,1.28,0,2.46.33,3.07,1.12.56.67.78,1.62.78,2.9v.56c-3.02.22-7.04.67-10.11,2.01-2.68,1.23-4.64,3.18-4.64,6.48,0,2.51.95,4.53,2.51,5.81,1.51,1.34,3.63,2.07,5.92,2.07,2.57,0,4.52-.39,6.82-1.84h.22v.45c0,.45.39.84.89.84h4.92c.45,0,.84-.39.84-.84v-15.53c0-3.24-.84-5.25-2.23-6.81-2.18-2.4-5.53-2.91-8.1-2.91Zm2.96,20.11c-1.28.78-2.63,1.06-3.91,1.06-2.07,0-3.8-.84-3.8-2.62,0-2.74,4.36-3.18,7.71-3.3v4.86Z"/><path class="cls-2" d="m202.29,71.75c-1.79-.89-3.41-1.4-5.2-2.12-1.29-.5-2.46-1.06-2.46-2.18,0-1.29,1.12-1.79,2.63-1.79,1.62,0,3.52.39,5.75,1.62.45.22.78.17,1.01-.28l2.01-4.13c.22-.39.22-.84-.34-1.12-2.01-1.12-4.58-1.96-8.66-1.96-6.59,0-10.22,2.96-10.22,7.65,0,3.24,1.4,5.36,4.13,6.7,1.79.89,3.74,1.51,5.36,2.23,1.4.62,2.4,1.06,2.4,2.29,0,1.34-1.12,2.01-2.96,2.01-2.4,0-4.08-.78-6.31-2.07-.45-.22-.84-.11-1.06.33l-2.07,4.3c-.22.39-.11.78.39,1.06,1.96,1.12,4.58,2.12,9.22,2.12,6.48,0,10.56-3.52,10.56-8.21,0-2.74-1.17-5.03-4.19-6.48Z"/><path class="cls-2" d="m221.75,59.8c-3.3,0-6.7.28-8.99.89-.56.17-.84.5-.84,1.01v36.42c0,.5.34.89.84.89h5.7c.45,0,.84-.39.84-.89v-12.12c1.23.34,2.46.45,3.91.45,3.91,0,7.99-1.23,10.61-4.19,1.84-2.12,3.02-5.08,3.02-9.11s-1.34-7.15-3.58-9.33c-2.68-2.68-6.82-4.02-11.51-4.02Zm5.75,18.99c-1.4,1.23-3.24,1.62-5.08,1.62-1.23,0-2.23-.17-3.13-.5v-13.85c.95-.17,2.18-.22,3.18-.22,2.18,0,4.02.73,5.25,2.07,1.12,1.28,1.79,3.02,1.79,5.25,0,2.62-.78,4.52-2.01,5.64Z"/><path class="cls-2" d="m260.74,62.7c-2.18-2.4-5.53-2.91-8.1-2.91-4.02,0-7.82,1.17-10.39,2.79-.5.34-.56.62-.33,1.12l1.62,3.52c.28.61.67.61,1.23.28,1.9-1.06,4.36-2.01,6.98-2.01,1.28,0,2.46.33,3.07,1.12.56.67.78,1.62.78,2.9v.56c-3.02.22-7.04.67-10.11,2.01-2.68,1.23-4.64,3.18-4.64,6.48,0,2.51.95,4.53,2.51,5.81,1.51,1.34,3.63,2.07,5.92,2.07,2.57,0,4.52-.39,6.82-1.84h.22v.45c0,.45.39.84.89.84h4.92c.45,0,.84-.39.84-.84v-15.53c0-3.24-.84-5.25-2.23-6.81Zm-5.14,17.21c-1.28.78-2.63,1.06-3.91,1.06-2.07,0-3.8-.84-3.8-2.62,0-2.74,4.36-3.18,7.71-3.3v4.86Z"/><path class="cls-2" d="m157.25,47.84h-8.1c-.67,0-1.23.28-1.73.84l-11.43,11.19v-11.19c0-.45-.34-.84-.84-.84h-6.31c-.5,0-.89.39-.89.84v36.37c0,.45.39.84.89.84h6.31c.5,0,.84-.39.84-.84v-11.19l11.43,11.19c.5.56,1.06.84,1.73.84h8.1c.73,0,1.01-.67.39-1.28l-18.13-17.74,18.13-17.74c.61-.61.33-1.28-.39-1.28Z"/></g></g><rect class="cls-1" x="79.09" y="-79.09" width="133.6" height="291.78" transform="translate(212.69 -79.09) rotate(90)"/></g></g></svg>