<?xml version="1.0" encoding="UTF-8"?><svg id="Layer_2" xmlns="http://www.w3.org/2000/svg" viewBox="0 0 234.18 76"><defs><style>.cls-1{fill:#fff;}.cls-2{fill:#b6b6b6;}</style></defs><g id="Layer_1-2"><g><g><path class="cls-2" d="M76.13,37.62c0,5.09-2.1,10.01-3.94,14.44-1.9,4.59-4.69,8.81-8.15,12.27-3.46,3.46-7.6,6.43-12.19,8.33-4.43,1.84-9.42,3.34-14.51,3.34s-10.19-1.25-14.62-3.09c-4.59-1.9-7.72-6.04-11.18-9.5-3.46-3.46-7.33-6.7-9.23-11.29C.47,47.7,.09,42.71,.09,37.62s-.6-10.49,1.24-14.91c1.9-4.59,5.92-8.26,9.38-11.71,3.46-3.46,7.29-7.07,11.88-8.97C27.02,.19,32.25,0,37.34,0s10.01,.92,14.44,2.76,9.01,4.49,12.47,7.95c3.46,3.46,6.46,7.71,8.36,12.3,1.84,4.43,3.52,9.52,3.52,14.61Z"/><polygon class="cls-1" points="48 15.92 39.93 17.12 42.23 32.73 25.35 19.72 20.38 26.21 35.19 37.62 20.38 49.02 25.35 55.51 42.23 42.51 39.93 58.12 48 59.31 51.2 37.62 48 15.92"/></g><path class="cls-2" d="M134.33,38.71c-.56,.33-.95,.33-1.23-.28l-1.62-3.52c-.22-.5-.17-.78,.33-1.12,2.57-1.62,6.37-2.79,10.39-2.79,2.57,0,5.92,.5,8.1,2.91,1.4,1.56,2.23,3.58,2.23,6.81v15.53c0,.45-.39,.84-.84,.84h-4.92c-.5,0-.89-.39-.89-.84v-.45h-.22c-2.29,1.45-4.25,1.84-6.82,1.84-2.29,0-4.41-.73-5.92-2.07-1.56-1.29-2.51-3.3-2.51-5.81,0-3.3,1.96-5.25,4.64-6.48,3.07-1.34,7.09-1.79,10.11-2.01v-.56c0-1.28-.22-2.23-.78-2.9-.61-.78-1.79-1.12-3.07-1.12-2.63,0-5.08,.95-6.98,2.01Zm10.84,12.4v-4.86c-3.35,.11-7.71,.56-7.71,3.3,0,1.79,1.73,2.62,3.8,2.62,1.28,0,2.63-.28,3.91-1.06Z"/><path class="cls-2" d="M169.91,49.88c0-1.23-1.01-1.68-2.4-2.29-1.62-.73-3.58-1.34-5.36-2.23-2.74-1.34-4.13-3.46-4.13-6.7,0-4.69,3.63-7.65,10.22-7.65,4.08,0,6.65,.84,8.66,1.96,.56,.28,.56,.73,.34,1.12l-2.01,4.13c-.22,.45-.56,.5-1.01,.28-2.23-1.23-4.13-1.62-5.75-1.62-1.51,0-2.63,.5-2.63,1.79,0,1.12,1.17,1.68,2.46,2.18,1.79,.73,3.41,1.23,5.2,2.12,3.02,1.45,4.19,3.74,4.19,6.48,0,4.69-4.08,8.21-10.56,8.21-4.64,0-7.26-1.01-9.22-2.12-.5-.28-.61-.67-.39-1.06l2.07-4.3c.22-.45,.61-.56,1.06-.33,2.23,1.28,3.91,2.07,6.31,2.07,1.84,0,2.96-.67,2.96-2.01Z"/><path class="cls-2" d="M192.95,31c4.69,0,8.83,1.34,11.51,4.02,2.23,2.18,3.58,5.31,3.58,9.33s-1.17,6.98-3.02,9.11c-2.63,2.96-6.7,4.19-10.61,4.19-1.45,0-2.68-.11-3.91-.45v12.12c0,.5-.39,.89-.84,.89h-5.7c-.5,0-.84-.39-.84-.89V32.9c0-.5,.28-.84,.84-1.01,2.29-.61,5.7-.89,8.99-.89Zm-2.46,20.11c.89,.33,1.9,.5,3.13,.5,1.84,0,3.69-.39,5.08-1.62,1.23-1.12,2.01-3.02,2.01-5.64,0-2.23-.67-3.97-1.79-5.25-1.23-1.34-3.07-2.07-5.25-2.07-1.01,0-2.23,.06-3.18,.22v13.85Z"/><path class="cls-2" d="M215.97,38.71c-.56,.33-.95,.33-1.23-.28l-1.62-3.52c-.22-.5-.17-.78,.33-1.12,2.57-1.62,6.37-2.79,10.39-2.79,2.57,0,5.92,.5,8.1,2.91,1.4,1.56,2.23,3.58,2.23,6.81v15.53c0,.45-.39,.84-.84,.84h-4.92c-.5,0-.89-.39-.89-.84v-.45h-.22c-2.29,1.45-4.25,1.84-6.82,1.84-2.29,0-4.41-.73-5.92-2.07-1.56-1.29-2.51-3.3-2.51-5.81,0-3.3,1.96-5.25,4.64-6.48,3.07-1.34,7.09-1.79,10.11-2.01v-.56c0-1.28-.22-2.23-.78-2.9-.61-.78-1.79-1.12-3.07-1.12-2.63,0-5.08,.95-6.98,2.01Zm10.84,12.4v-4.86c-3.35,.11-7.71,.56-7.71,3.3,0,1.79,1.73,2.62,3.8,2.62,1.28,0,2.63-.28,3.91-1.06Z"/><path class="cls-2" d="M128.84,55.8c.62,.61,.34,1.28-.39,1.28h-8.1c-.67,0-1.23-.28-1.73-.84l-11.43-11.18v11.18c0,.45-.34,.84-.84,.84h-6.31c-.51,0-.9-.39-.9-.84V19.88c0-.45,.39-.84,.9-.84h6.31c.5,0,.84,.39,.84,.84v11.19l11.43-11.19c.5-.56,1.06-.84,1.73-.84h8.1c.73,0,1.01,.67,.39,1.28l-18.13,17.74,18.13,17.74Z"/></g></g></svg>