<?xml version="1.0" encoding="UTF-8"?><svg id="Layer_2" xmlns="http://www.w3.org/2000/svg" viewBox="0 0 233.88 231.9"><defs><style>.cls-1{fill:#2a6159;}.cls-2{fill:#6fc7ba;}.cls-3,.cls-4{fill:#49e3c4;}.cls-5{fill:#285e56;}.cls-5,.cls-4,.cls-6{fill-rule:evenodd;}.cls-6{fill:#fff;}</style></defs><g id="Layer_1-2"><path class="cls-2" d="m11.8,208.59l5.69-11.8.57-6.46h14l-4.74,6.23-7.79,14.25,7.67,14.66,4.87,6.3h-14l-.54-6.55-5.73-12.12v12.37l2.54,6.3H0l2.54-6.3v-28.72l-2.54-6.42h14.35l-2.54,6.3v11.96Z"/><path class="cls-2" d="m49.08,231.78l1.91-4.58-.86-5.15h-8.08l-1.05,5.57,2.19,4.29-13.77-.25,2.83-5.19,7.03-30.95-2.19-5.18,18.16.13-1.56,4.87,6.87,31.11,3.24,5.47-14.73-.13Zm-5.88-16.13l6.14-.13-2.96-15.52-3.18,15.65Z"/><path class="cls-2" d="m80.21,223.31v-7.51c0-.55-.13-.95-.4-1.19-.27-.24-.73-.37-1.38-.37h-5.73c-5.11,0-7.67-2.43-7.67-7.28v-9.45c0-4.79,2.74-7.19,8.21-7.19h7.92c5.49,0,8.24,2.4,8.24,7.19v7.95l-11.23-1.27,1.91-4.2v-1.18c0-1.08-.59-1.62-1.78-1.62h-2.19c-1.19,0-1.78.54-1.78,1.62v7.28c0,.57.13.98.4,1.21s.73.35,1.38.35h5.6c2.78,0,4.78.6,6,1.8,1.22,1.2,1.83,2.96,1.83,5.3v9.8c0,4.81-2.74,7.22-8.21,7.22h-7.89c-5.51,0-8.27-2.41-8.27-7.22v-8.52l11.23,1.27-1.91,4.8v1.21c0,1.08.58,1.62,1.75,1.62h2.19c1.19,0,1.78-.54,1.78-1.62Z"/><path class="cls-1" d="m109.88,190.33h13.77l-2.99,6.36-6.3,28.66,1.11,6.43h-16.48l1.11-6.46-6.36-28.75-2.99-6.23h13.84l-1.46,6.36,4.07,23.12,4.13-23.03-1.46-6.46Z"/><path class="cls-1" d="m139.14,231.78l1.91-4.58-.86-5.15h-8.08l-1.05,5.57,2.2,4.29-13.77-.25,2.83-5.19,7.03-30.95-2.19-5.18,18.16.13-1.56,4.87,6.87,31.11,3.24,5.47-14.73-.13Zm-5.88-16.13l6.14-.13-2.96-15.52-3.18,15.65Z"/><path class="cls-1" d="m169.73,190.33h14.41l-2.54,6.17v28.05c0,4.81-2.76,7.22-8.27,7.22h-8.75c-5.47,0-8.21-2.41-8.21-7.22v-27.93l-2.54-6.3h14.41l-2.54,6.3v26.69c0,1.08.56,1.62,1.69,1.62h3.15c1.17,0,1.75-.54,1.75-1.62v-26.56l-2.54-6.42Z"/><path class="cls-1" d="m197.49,224.94h4.9l7.03-2.54,1.27,9.38h-25l2.54-6.3v-28.72l-2.54-6.42h14.34l-2.54,6.42v28.18Z"/><path class="cls-1" d="m233.88,190.33l-1.27,8.78-4.2-1.91h-3.4v28.09l2.54,6.49h-14.41l2.54-6.43v-28.15h-2.83l-4.74,1.91-1.27-8.78h27.04Z"/><path class="cls-4" d="m130.22,110.02c-.06,2.04-1.44,3.89-3.5,4.44-2.06.55-4.18-.36-5.25-2.09-.58,1.95-2.39,3.38-4.53,3.38s-3.95-1.43-4.53-3.38c-1.07,1.73-3.19,2.65-5.25,2.1-2.06-.55-3.44-2.4-3.5-4.44-1.48,1.4-3.76,1.74-5.62.67-1.85-1.07-2.71-3.21-2.23-5.19-1.79.97-4.08.7-5.59-.81-1.52-1.51-1.79-3.8-.81-5.6-1.98.48-4.13-.38-5.19-2.23-1.07-1.85-.74-4.14.66-5.62-2.04-.06-3.89-1.44-4.44-3.5-.55-2.06.36-4.18,2.1-5.25-1.96-.58-3.38-2.39-3.38-4.53s1.43-3.95,3.38-4.53c-1.73-1.07-2.65-3.19-2.1-5.25.55-2.06,2.41-3.44,4.44-3.5-1.4-1.48-1.74-3.77-.66-5.62,1.07-1.85,3.21-2.71,5.19-2.23-.97-1.79-.7-4.08.81-5.59,1.51-1.52,3.8-1.79,5.59-.81-.47-1.98.38-4.12,2.23-5.19,1.85-1.07,4.14-.74,5.62.67.06-2.04,1.44-3.89,3.5-4.44,2.06-.55,4.19.36,5.25,2.1.58-1.96,2.39-3.39,4.53-3.39s3.95,1.43,4.53,3.39c1.07-1.73,3.19-2.65,5.25-2.1,2.06.55,3.44,2.41,3.5,4.44,1.48-1.4,3.77-1.74,5.62-.67,1.85,1.07,2.71,3.21,2.23,5.19,1.79-.97,4.08-.7,5.59.81,1.51,1.51,1.79,3.8.81,5.59,1.98-.47,4.12.38,5.19,2.23,1.07,1.85.74,4.14-.67,5.62,2.03.06,3.89,1.44,4.44,3.5.55,2.06-.36,4.18-2.1,5.25,1.96.58,3.39,2.39,3.39,4.53s-1.43,3.95-3.39,4.53c1.73,1.07,2.65,3.19,2.1,5.25-.55,2.06-2.41,3.44-4.44,3.5,1.4,1.48,1.74,3.76.67,5.62-1.07,1.85-3.21,2.71-5.19,2.23.97,1.79.7,4.08-.81,5.6-1.52,1.51-3.8,1.79-5.59.81.47,1.98-.38,4.13-2.23,5.19-1.85,1.07-4.14.74-5.62-.67h0Zm61.7-72.23h.58v14.18h-.58c-2.03,3.67-8.77,2.95-8.84-2.33v-9.54c.07-5.25,6.81-5.97,8.84-2.3h0Zm0,66.14h.58v14.17h-.59c-2.03,3.65-8.77,2.96-8.84-2.33v-9.54c.07-5.22,6.81-5.97,8.84-2.3h0Z"/><path class="cls-6" d="m173.63,11.81c5.2,0,9.45,4.25,9.45,9.45v113.39c0,5.19-4.25,9.45-9.45,9.45H60.25c-5.2,0-9.45-4.25-9.45-9.45V21.26c0-5.2,4.25-9.45,9.45-9.45h113.39Zm-56.69,28.35c-20.87,0-37.79,16.92-37.79,37.8s16.92,37.79,37.79,37.79,37.8-16.92,37.8-37.79-16.92-37.8-37.8-37.8h0Z"/><path class="cls-6" d="m183.08,102.96v-50.03l3.15,1.11c1,.35,2.14.35,3.14,0l3.16-1.14v50.1l-3.16-1.13c-1-.36-2.14-.36-3.15-.01l-3.15,1.11h0Zm9.45,16.07v15.61c0,10.39-8.5,18.9-18.9,18.9H60.25c-10.39,0-18.9-8.5-18.9-18.9V21.26c0-10.39,8.5-18.9,18.9-18.9h113.39c10.39,0,18.9,8.5,18.9,18.9v15.6l-3.16-1.13c-1-.36-2.14-.36-3.15,0l-3.15,1.1v-15.56c0-5.2-4.25-9.45-9.45-9.45H60.25c-5.2,0-9.45,4.25-9.45,9.45v113.39c0,5.19,4.25,9.45,9.45,9.45h113.39c5.2,0,9.45-4.25,9.45-9.45v-15.56l3.15,1.11c1,.35,2.14.35,3.14-.01l3.16-1.14h0Z"/><path class="cls-5" d="m173.34,155.9l-2.07,16.53h-14.17l-2.07-16.53h-76.18l-2.07,16.53h-14.17l-2.07-16.53h-.29c-11.7,0-21.26-9.56-21.26-21.26V21.26C38.98,9.56,48.55,0,60.25,0h113.39c11.7,0,21.26,9.56,21.26,21.26v113.39c0,11.69-9.56,21.26-21.26,21.26h-.3Z"/><path class="cls-5" d="m116.94,37.79c22.18,0,40.16,17.98,40.16,40.16s-17.98,40.16-40.16,40.16-40.16-17.98-40.16-40.16,17.98-40.16,40.16-40.16h0Z"/><path class="cls-6" d="m185.44,99.63c1.52-.53,3.21-.53,4.72.01v-43.38c-1.51.55-3.21.55-4.72.02v43.35h0Z"/><path class="cls-6" d="m190.17,122.4c-1.51.55-3.21.55-4.72.02v12.23c0,6.5-5.31,11.81-11.81,11.81H60.25c-6.5,0-11.81-5.31-11.81-11.81V21.26c0-6.5,5.31-11.81,11.81-11.81h113.39c6.5,0,11.81,5.31,11.81,11.81v12.23c1.52-.53,3.21-.53,4.72.01v-12.24c0-9.09-7.45-16.54-16.54-16.54H60.25c-9.09,0-16.53,7.44-16.53,16.54v113.39c0,9.09,7.44,16.53,16.53,16.53h113.39c9.09,0,16.54-7.44,16.54-16.53v-12.24h0Z"/><path class="cls-6" d="m173.63,14.17H60.25c-3.89,0-7.09,3.2-7.09,7.09v113.39c0,3.89,3.19,7.09,7.09,7.09h113.39c3.89,0,7.09-3.19,7.09-7.09V21.26c0-3.89-3.2-7.09-7.09-7.09h0Z"/><path class="cls-4" d="m185.44,106.27v9.51c.04,3.11,4.69,2.99,4.69-.03h0v-9.45h0c0-3.06-4.65-3.09-4.69-.03h0Z"/><path class="cls-4" d="m185.44,40.13v9.51c.04,3.09,4.69,3.01,4.69-.03h0v-9.45h0c0-3.04-4.65-3.12-4.69-.03h0Z"/><path class="cls-5" d="m116.94,132.2h.1c1.31,0,2.36,1.06,2.36,2.36s-1.06,2.36-2.36,2.36h-.1c-1.26-.05-2.27-1.09-2.27-2.36s1.01-2.31,2.27-2.36h0Z"/><path class="cls-5" d="m116.94,18.9h0c1.3,0,2.36,1.06,2.36,2.36s-1.06,2.36-2.36,2.36h0c-1.31,0-2.36-1.06-2.36-2.36s1.06-2.36,2.36-2.36h0Z"/><path class="cls-5" d="m173.73,136.92c-1.3,0-2.36-1.06-2.36-2.36s1.06-2.36,2.36-2.36,2.36,1.06,2.36,2.36-1.06,2.36-2.36,2.36h0Z"/><path class="cls-5" d="m175.99,21.26c0,1.3-1.06,2.36-2.36,2.36s-2.36-1.06-2.36-2.36,1.06-2.36,2.36-2.36,2.36,1.06,2.36,2.36h0Z"/><path class="cls-5" d="m128.75,21.26c0,1.3-1.06,2.36-2.36,2.36s-2.36-1.06-2.36-2.36,1.06-2.36,2.36-2.36,2.36,1.06,2.36,2.36h0Z"/><path class="cls-5" d="m117.31,34.29c24.58,0,44.5,19.93,44.5,44.51s-19.93,44.5-44.5,44.5-44.51-19.92-44.51-44.5,19.93-44.51,44.51-44.51h0Z"/><path class="cls-5" d="m138.2,21.26c0,1.3-1.06,2.36-2.36,2.36s-2.36-1.06-2.36-2.36,1.06-2.36,2.36-2.36,2.36,1.06,2.36,2.36h0Z"/><path class="cls-5" d="m147.65,21.26c0,1.3-1.06,2.36-2.36,2.36s-2.36-1.06-2.36-2.36,1.06-2.36,2.36-2.36,2.36,1.06,2.36,2.36h0Z"/><path class="cls-5" d="m157.1,21.26c0,1.3-1.06,2.36-2.36,2.36s-2.36-1.06-2.36-2.36,1.06-2.36,2.36-2.36,2.36,1.06,2.36,2.36h0Z"/><path class="cls-5" d="m166.55,21.26c0,1.3-1.06,2.36-2.36,2.36s-2.36-1.06-2.36-2.36,1.06-2.36,2.36-2.36,2.36,1.06,2.36,2.36h0Z"/><path class="cls-5" d="m173.73,32.99c-.88,0-1.65-.49-2.06-1.2-.19-.34-.3-.74-.3-1.16,0-1.3,1.06-2.36,2.36-2.36s2.36,1.06,2.36,2.36c0,.42-.11.82-.3,1.17-.41.72-1.17,1.2-2.06,1.2h0Z"/><path class="cls-5" d="m173.73,42.44c-1.3,0-2.36-1.06-2.36-2.36s1.06-2.36,2.36-2.36,2.36,1.06,2.36,2.36-1.06,2.36-2.36,2.36h0Z"/><path class="cls-5" d="m173.73,51.89c-1.3,0-2.36-1.06-2.36-2.36s1.06-2.36,2.36-2.36,2.36,1.06,2.36,2.36-1.06,2.36-2.36,2.36h0Z"/><path class="cls-5" d="m173.73,61.34c-1.3,0-2.36-1.06-2.36-2.36s1.06-2.36,2.36-2.36,2.36,1.06,2.36,2.36-1.06,2.36-2.36,2.36h0Z"/><path class="cls-5" d="m173.73,70.78c-1.3,0-2.36-1.06-2.36-2.36s1.06-2.36,2.36-2.36,2.36,1.06,2.36,2.36-1.06,2.36-2.36,2.36h0Z"/><path class="cls-5" d="m173.73,80.23c-1.3,0-2.36-1.06-2.36-2.36s1.06-2.36,2.36-2.36,2.36,1.06,2.36,2.36-1.06,2.36-2.36,2.36h0Z"/><path class="cls-5" d="m173.73,89.68c-1.3,0-2.36-1.06-2.36-2.36s1.06-2.36,2.36-2.36,2.36,1.06,2.36,2.36-1.06,2.36-2.36,2.36h0Z"/><path class="cls-5" d="m173.73,99.13c-1.3,0-2.36-1.06-2.36-2.36s1.06-2.36,2.36-2.36,2.36,1.06,2.36,2.36-1.06,2.36-2.36,2.36h0Z"/><path class="cls-5" d="m173.73,108.58c-1.3,0-2.36-1.06-2.36-2.36s1.06-2.36,2.36-2.36,2.36,1.06,2.36,2.36-1.06,2.36-2.36,2.36h0Z"/><path class="cls-5" d="m173.73,118.03c-1.3,0-2.36-1.06-2.36-2.36s1.06-2.36,2.36-2.36,2.36,1.06,2.36,2.36-1.06,2.36-2.36,2.36h0Z"/><path class="cls-5" d="m173.73,127.48c-1.3,0-2.36-1.06-2.36-2.36s1.06-2.36,2.36-2.36,2.36,1.06,2.36,2.36-1.06,2.36-2.36,2.36h0Z"/><path class="cls-5" d="m161.92,134.56c0-1.3,1.06-2.36,2.36-2.36s2.36,1.06,2.36,2.36-1.06,2.36-2.36,2.36-2.36-1.06-2.36-2.36h0Z"/><path class="cls-5" d="m152.47,134.56c0-1.3,1.06-2.36,2.36-2.36s2.36,1.06,2.36,2.36-1.06,2.36-2.36,2.36-2.36-1.06-2.36-2.36h0Z"/><path class="cls-5" d="m143.02,134.56c0-1.3,1.06-2.36,2.36-2.36s2.36,1.06,2.36,2.36-1.06,2.36-2.36,2.36-2.36-1.06-2.36-2.36h0Z"/><path class="cls-5" d="m133.57,134.56c0-1.3,1.06-2.36,2.36-2.36s2.36,1.06,2.36,2.36-1.06,2.36-2.36,2.36-2.36-1.06-2.36-2.36h0Z"/><path class="cls-5" d="m124.12,134.56c0-1.3,1.06-2.36,2.36-2.36s2.36,1.06,2.36,2.36-1.06,2.36-2.36,2.36-2.36-1.06-2.36-2.36h0Z"/><path class="cls-5" d="m81.51,21.26c0,1.3-1.06,2.36-2.36,2.36s-2.36-1.06-2.36-2.36,1.06-2.36,2.36-2.36,2.36,1.06,2.36,2.36h0Z"/><path class="cls-5" d="m90.95,21.26c0,1.3-1.06,2.36-2.36,2.36s-2.36-1.06-2.36-2.36,1.06-2.36,2.36-2.36,2.36,1.06,2.36,2.36h0Z"/><path class="cls-5" d="m100.4,21.26c0,1.3-1.06,2.36-2.36,2.36s-2.36-1.06-2.36-2.36,1.06-2.36,2.36-2.36,2.36,1.06,2.36,2.36h0Z"/><path class="cls-5" d="m109.85,21.26c0,1.3-1.06,2.36-2.36,2.36s-2.36-1.06-2.36-2.36,1.06-2.36,2.36-2.36,2.36,1.06,2.36,2.36h0Z"/><path class="cls-5" d="m57.98,134.56c0-1.3,1.06-2.36,2.36-2.36s2.36,1.06,2.36,2.36-1.06,2.36-2.36,2.36-2.36-1.06-2.36-2.36h0Z"/><path class="cls-5" d="m105.22,134.56c0-1.3,1.06-2.36,2.36-2.36s2.36,1.06,2.36,2.36-1.06,2.36-2.36,2.36-2.36-1.06-2.36-2.36h0Z"/><path class="cls-5" d="m95.77,134.56c0-1.3,1.06-2.36,2.36-2.36s2.36,1.06,2.36,2.36-1.06,2.36-2.36,2.36-2.36-1.06-2.36-2.36h0Z"/><path class="cls-5" d="m86.33,134.56c0-1.3,1.06-2.36,2.36-2.36s2.36,1.06,2.36,2.36-1.06,2.36-2.36,2.36-2.36-1.06-2.36-2.36h0Z"/><path class="cls-5" d="m76.88,134.56c0-1.3,1.06-2.36,2.36-2.36s2.36,1.06,2.36,2.36-1.06,2.36-2.36,2.36-2.36-1.06-2.36-2.36h0Z"/><path class="cls-5" d="m67.43,134.56c0-1.3,1.06-2.36,2.36-2.36s2.36,1.06,2.36,2.36-1.06,2.36-2.36,2.36-2.36-1.06-2.36-2.36h0Z"/><path class="cls-5" d="m60.25,122.83c1.3,0,2.36,1.06,2.36,2.36s-1.06,2.36-2.36,2.36-2.36-1.06-2.36-2.36,1.06-2.36,2.36-2.36h0Z"/><path class="cls-5" d="m60.25,113.39c1.3,0,2.36,1.06,2.36,2.36s-1.06,2.36-2.36,2.36-2.36-1.06-2.36-2.36,1.06-2.36,2.36-2.36h0Z"/><path class="cls-5" d="m60.25,103.93c1.3,0,2.36,1.06,2.36,2.36s-1.06,2.36-2.36,2.36-2.36-1.06-2.36-2.36,1.06-2.36,2.36-2.36h0Z"/><path class="cls-5" d="m60.25,94.49c1.3,0,2.36,1.06,2.36,2.36s-1.06,2.36-2.36,2.36-2.36-1.06-2.36-2.36,1.06-2.36,2.36-2.36h0Z"/><path class="cls-5" d="m60.25,85.04c1.3,0,2.36,1.06,2.36,2.36s-1.06,2.36-2.36,2.36-2.36-1.06-2.36-2.36,1.06-2.36,2.36-2.36h0Z"/><path class="cls-5" d="m60.25,75.59c1.3,0,2.36,1.06,2.36,2.36s-1.06,2.36-2.36,2.36-2.36-1.06-2.36-2.36,1.06-2.36,2.36-2.36h0Z"/><path class="cls-5" d="m60.25,66.14c1.3,0,2.36,1.06,2.36,2.36s-1.06,2.36-2.36,2.36-2.36-1.06-2.36-2.36,1.06-2.36,2.36-2.36h0Z"/><path class="cls-5" d="m60.25,56.69c1.3,0,2.36,1.06,2.36,2.36s-1.06,2.36-2.36,2.36-2.36-1.06-2.36-2.36,1.06-2.36,2.36-2.36h0Z"/><path class="cls-5" d="m60.25,47.24c1.3,0,2.36,1.06,2.36,2.36s-1.06,2.36-2.36,2.36-2.36-1.06-2.36-2.36,1.06-2.36,2.36-2.36h0Z"/><path class="cls-5" d="m60.25,37.79c1.3,0,2.36,1.06,2.36,2.36s-1.06,2.36-2.36,2.36-2.36-1.06-2.36-2.36,1.06-2.36,2.36-2.36h0Z"/><path class="cls-3" d="m147.56,65.67c-1.67-4.02-4.29-7.75-7.32-10.77-3.03-3.03-6.9-5.3-10.92-6.97-3.88-1.61-8.19-2.41-12.65-2.41s-9.04.16-12.91,1.77c-4.02,1.67-7.38,4.83-10.41,7.86-3.03,3.03-6.55,6.24-8.21,10.26-1.61,3.88-1.08,8.6-1.08,13.06s.33,8.83,1.93,12.71c1.67,4.02,5.06,6.86,8.09,9.89,3.03,3.03,5.77,6.65,9.79,8.32,3.88,1.61,8.35,2.7,12.81,2.7s8.83-1.32,12.71-2.93c4.02-1.67,7.65-4.27,10.68-7.3,3.03-3.03,5.47-6.73,7.14-10.75,1.61-3.88,3.45-8.19,3.45-12.64s-1.48-8.92-3.09-12.79Zm-21.55,31.8l-7.07-1.05,2.02-13.67-14.79,11.39-4.35-5.68,12.97-9.99-12.97-9.99,4.35-5.68,14.79,11.39-2.02-13.67,7.07-1.05,2.8,19-2.8,19Z"/><path class="cls-5" d="m60.25,18.9c1.3,0,2.36,1.06,2.36,2.36s-1.06,2.36-2.36,2.36-2.36-1.06-2.36-2.36,1.06-2.36,2.36-2.36h0Z"/><path class="cls-5" d="m72.06,21.26c0,1.3-1.06,2.36-2.36,2.36s-2.36-1.06-2.36-2.36,1.06-2.36,2.36-2.36,2.36,1.06,2.36,2.36h0Z"/><path class="cls-5" d="m60.25,28.35c1.3,0,2.36,1.06,2.36,2.36,0,.32-.06.63-.18.9-.36.86-1.2,1.46-2.18,1.46s-1.84-.61-2.19-1.47c-.11-.28-.17-.58-.17-.9,0-1.3,1.06-2.36,2.36-2.36h0Z"/></g></svg>