<?xml version="1.0" encoding="UTF-8"?><svg id="Layer_2" xmlns="http://www.w3.org/2000/svg" viewBox="0 0 420.32 123.92"><defs><style>.cls-1{fill:#2a6159;}.cls-2{fill:#6fc7ba;}.cls-3,.cls-4{fill:#49e3c4;}.cls-5{fill:#285e56;}.cls-5,.cls-4,.cls-6{fill-rule:evenodd;}.cls-6{fill:#fff;}</style></defs><g id="Layer_1-2"><path class="cls-2" d="m150.14,51.41l6.85-14.19.69-7.76h16.83l-5.7,7.5-9.37,17.14,9.22,17.63,5.85,7.57h-16.83l-.65-7.88-6.88-14.57v14.88l3.06,7.57h-17.25l3.06-7.57v-34.54l-3.06-7.73h17.25l-3.06,7.57v14.38Z"/><path class="cls-2" d="m198.1,79.29l2.29-5.51-1.03-6.2h-9.71l-1.26,6.69,2.64,5.16-16.56-.31,3.4-6.23,8.45-37.22-2.64-6.23,21.84.15-1.87,5.85,8.26,37.41,3.9,6.58-17.71-.15Zm-7.08-19.39l7.38-.15-3.56-18.67-3.82,18.82Z"/><path class="cls-2" d="m235.54,69.12v-9.03c0-.66-.16-1.14-.48-1.43-.32-.29-.87-.44-1.66-.44h-6.89c-6.15,0-9.22-2.92-9.22-8.76v-11.36c0-5.76,3.29-8.64,9.87-8.64h9.52c6.6,0,9.91,2.88,9.91,8.64v9.56l-13.5-1.53,2.29-5.05v-1.42c0-1.3-.71-1.95-2.14-1.95h-2.64c-1.43,0-2.14.65-2.14,1.95v8.76c0,.69.16,1.17.48,1.45.32.28.87.42,1.66.42h6.73c3.34,0,5.74.72,7.21,2.16,1.47,1.44,2.2,3.56,2.2,6.37v11.78c0,5.79-3.29,8.68-9.87,8.68h-9.49c-6.63,0-9.94-2.89-9.94-8.68v-10.25l13.5,1.53-2.29,5.78v1.45c0,1.3.7,1.95,2.1,1.95h2.64c1.43,0,2.14-.65,2.14-1.95Z"/><path class="cls-1" d="m271.22,29.45h16.56l-3.59,7.65-7.57,34.46,1.34,7.73h-19.81l1.34-7.76-7.65-34.58-3.6-7.5h16.64l-1.76,7.65,4.9,27.81,4.97-27.69-1.76-7.76Z"/><path class="cls-1" d="m306.4,79.29l2.29-5.51-1.03-6.2h-9.71l-1.26,6.69,2.64,5.16-16.56-.31,3.4-6.23,8.45-37.22-2.64-6.23,21.84.15-1.87,5.85,8.26,37.41,3.9,6.58-17.71-.15Zm-7.08-19.39l7.38-.15-3.56-18.67-3.82,18.82Z"/><path class="cls-1" d="m343.19,29.45h17.33l-3.06,7.42v33.74c0,5.79-3.32,8.68-9.95,8.68h-10.52c-6.58,0-9.87-2.89-9.87-8.68v-33.58l-3.06-7.57h17.33l-3.06,7.57v32.09c0,1.3.67,1.95,2.03,1.95h3.79c1.4,0,2.1-.65,2.1-1.95v-31.94l-3.06-7.73Z"/><path class="cls-1" d="m376.57,71.07h5.89l8.45-3.06,1.53,11.28h-30.06l3.06-7.57v-34.54l-3.06-7.73h17.25l-3.06,7.73v33.89Z"/><path class="cls-1" d="m420.32,29.45l-1.53,10.56-5.05-2.29h-4.09v33.78l3.06,7.8h-17.33l3.06-7.73v-33.85h-3.4l-5.7,2.29-1.53-10.56h32.51Z"/><path class="cls-4" d="m65.57,79.06c-.04,1.46-1.03,2.8-2.52,3.19-1.48.4-3.01-.26-3.77-1.5-.41,1.4-1.72,2.43-3.26,2.43s-2.84-1.03-3.26-2.43c-.77,1.24-2.29,1.9-3.77,1.51-1.48-.4-2.47-1.73-2.52-3.19-1.06,1.01-2.7,1.25-4.04.48-1.33-.77-1.94-2.31-1.6-3.73-1.29.7-2.93.5-4.02-.58-1.09-1.09-1.28-2.73-.58-4.02-1.42.34-2.96-.27-3.73-1.6-.77-1.33-.53-2.97.48-4.04-1.46-.04-2.79-1.03-3.19-2.52-.4-1.48.26-3.01,1.51-3.77-1.41-.41-2.43-1.72-2.43-3.26s1.02-2.84,2.43-3.26c-1.25-.77-1.9-2.29-1.51-3.77.4-1.48,1.73-2.47,3.19-2.51-1.01-1.06-1.25-2.71-.48-4.04.77-1.33,2.31-1.95,3.73-1.6-.7-1.29-.5-2.93.58-4.02,1.09-1.09,2.73-1.28,4.02-.58-.34-1.42.27-2.96,1.6-3.73,1.33-.77,2.97-.53,4.04.48.04-1.46,1.03-2.8,2.51-3.19,1.48-.4,3.01.26,3.77,1.51.41-1.41,1.72-2.43,3.26-2.43s2.84,1.03,3.26,2.43c.77-1.25,2.29-1.9,3.77-1.51,1.48.4,2.47,1.73,2.51,3.19,1.06-1.01,2.71-1.25,4.04-.48,1.33.77,1.94,2.31,1.6,3.73,1.29-.7,2.93-.5,4.02.58,1.09,1.09,1.28,2.73.58,4.02,1.42-.34,2.96.27,3.73,1.6.77,1.33.53,2.97-.48,4.04,1.46.04,2.8,1.03,3.19,2.51.4,1.48-.26,3.01-1.51,3.77,1.41.41,2.43,1.72,2.43,3.26s-1.03,2.84-2.43,3.26c1.25.77,1.9,2.29,1.51,3.77-.4,1.48-1.73,2.47-3.19,2.52,1.01,1.06,1.25,2.7.48,4.04-.77,1.33-2.31,1.94-3.73,1.6.7,1.29.5,2.93-.58,4.02-1.09,1.09-2.73,1.28-4.02.58.34,1.42-.27,2.97-1.6,3.73-1.33.77-2.97.53-4.04-.48h0Zm44.34-51.9h.42v10.19h-.42c-1.46,2.64-6.31,2.12-6.35-1.68v-6.85c.05-3.78,4.89-4.29,6.35-1.66h0Zm0,47.53h.42v10.19h-.42c-1.46,2.63-6.3,2.13-6.35-1.68v-6.85c.05-3.75,4.9-4.29,6.35-1.66h0Z"/><path class="cls-6" d="m96.76,8.49c3.73,0,6.79,3.06,6.79,6.79v81.48c0,3.73-3.06,6.79-6.79,6.79H15.28c-3.74,0-6.79-3.06-6.79-6.79V15.28c0-3.73,3.06-6.79,6.79-6.79h81.48Zm-40.74,20.37c-15,0-27.16,12.16-27.16,27.16s12.16,27.16,27.16,27.16,27.16-12.16,27.16-27.16-12.16-27.16-27.16-27.16h0Z"/><path class="cls-6" d="m103.55,73.99v-35.95l2.26.8c.72.25,1.53.25,2.26,0l2.27-.82v36l-2.27-.81c-.72-.26-1.54-.26-2.26,0l-2.26.8h0Zm6.79,11.55v11.22c0,7.47-6.11,13.58-13.58,13.58H15.28c-7.47,0-13.58-6.11-13.58-13.58V15.28C1.7,7.81,7.81,1.7,15.28,1.7h81.48c7.47,0,13.58,6.11,13.58,13.58v11.21l-2.27-.81c-.72-.26-1.54-.26-2.26,0l-2.26.79v-11.18c0-3.73-3.06-6.79-6.79-6.79H15.28c-3.74,0-6.79,3.06-6.79,6.79v81.48c0,3.73,3.06,6.79,6.79,6.79h81.48c3.73,0,6.79-3.06,6.79-6.79v-11.19l2.26.8c.72.25,1.53.25,2.26,0l2.27-.82h0Z"/><path class="cls-5" d="m15.28,13.58c.94,0,1.7.76,1.7,1.7s-.76,1.7-1.7,1.7-1.7-.76-1.7-1.7.76-1.7,1.7-1.7h0Z"/><path class="cls-5" d="m56.02,27.16c15.94,0,28.86,12.92,28.86,28.86s-12.92,28.86-28.86,28.86-28.86-12.92-28.86-28.86,12.92-28.86,28.86-28.86h0Z"/><path class="cls-5" d="m96.55,112.04l-1.49,11.88h-10.19l-1.49-11.88H28.65l-1.49,11.88h-10.19l-1.49-11.88h-.21c-8.41,0-15.28-6.87-15.28-15.28V15.28C0,6.87,6.87,0,15.28,0h81.48c8.41,0,15.28,6.87,15.28,15.28v81.48c0,8.4-6.87,15.28-15.28,15.28h-.21Z"/><path class="cls-6" d="m96.76,10.18H15.28c-2.8,0-5.09,2.3-5.09,5.09v81.48c0,2.8,2.3,5.09,5.09,5.09h81.48c2.8,0,5.09-2.29,5.09-5.09V15.28c0-2.8-2.3-5.09-5.09-5.09h0Z"/><path class="cls-6" d="m105.25,71.6c1.09-.38,2.31-.38,3.39,0v-31.18c-1.09.39-2.3.4-3.39.01v31.16h0Z"/><path class="cls-6" d="m108.65,87.96c-1.09.39-2.3.4-3.39.01v8.79c0,4.67-3.82,8.49-8.49,8.49H15.28c-4.67,0-8.49-3.82-8.49-8.49V15.28c0-4.67,3.82-8.49,8.49-8.49h81.48c4.67,0,8.49,3.82,8.49,8.49v8.79c1.09-.38,2.31-.38,3.39,0v-8.8c0-6.53-5.35-11.88-11.88-11.88H15.28c-6.53,0-11.88,5.35-11.88,11.88v81.48c0,6.53,5.35,11.88,11.88,11.88h81.48c6.53,0,11.88-5.35,11.88-11.88v-8.8h0Z"/><path class="cls-4" d="m105.25,76.37v6.83c.03,2.23,3.37,2.15,3.37-.02h0v-6.79h0c0-2.2-3.34-2.22-3.37-.02h0Z"/><path class="cls-4" d="m105.25,28.84v6.83c.03,2.22,3.37,2.17,3.37-.02h0v-6.79h0c0-2.18-3.34-2.24-3.37-.02h0Z"/><path class="cls-5" d="m56.02,95.01h.07c.94,0,1.7.76,1.7,1.7s-.76,1.7-1.7,1.7h-.07c-.9-.04-1.63-.78-1.63-1.7s.72-1.66,1.63-1.7h0Z"/><path class="cls-5" d="m56.02,13.58h0c.94,0,1.7.76,1.7,1.7s-.76,1.7-1.7,1.7h0c-.94,0-1.7-.76-1.7-1.7s.76-1.7,1.7-1.7h0Z"/><path class="cls-5" d="m96.83,98.4c-.94,0-1.7-.76-1.7-1.7s.76-1.7,1.7-1.7,1.7.76,1.7,1.7-.76,1.7-1.7,1.7h0Z"/><path class="cls-5" d="m98.46,15.28c0,.94-.76,1.7-1.7,1.7s-1.7-.76-1.7-1.7.76-1.7,1.7-1.7,1.7.76,1.7,1.7h0Z"/><path class="cls-5" d="m64.51,15.28c0,.94-.76,1.7-1.7,1.7s-1.7-.76-1.7-1.7.76-1.7,1.7-1.7,1.7.76,1.7,1.7h0Z"/><path class="cls-5" d="m56.29,24.64c17.66,0,31.98,14.32,31.98,31.99s-14.32,31.98-31.98,31.98-31.98-14.32-31.98-31.98,14.32-31.99,31.98-31.99h0Z"/><path class="cls-5" d="m71.3,15.28c0,.94-.76,1.7-1.7,1.7s-1.7-.76-1.7-1.7.76-1.7,1.7-1.7,1.7.76,1.7,1.7h0Z"/><path class="cls-5" d="m78.09,15.28c0,.94-.76,1.7-1.7,1.7s-1.7-.76-1.7-1.7.76-1.7,1.7-1.7,1.7.76,1.7,1.7h0Z"/><path class="cls-5" d="m84.88,15.28c0,.94-.76,1.7-1.7,1.7s-1.7-.76-1.7-1.7.76-1.7,1.7-1.7,1.7.76,1.7,1.7h0Z"/><path class="cls-5" d="m91.67,15.28c0,.94-.76,1.7-1.7,1.7s-1.7-.76-1.7-1.7.76-1.7,1.7-1.7,1.7.76,1.7,1.7h0Z"/><path class="cls-5" d="m96.83,23.71c-.63,0-1.19-.35-1.48-.87-.14-.25-.22-.53-.22-.83,0-.94.76-1.7,1.7-1.7s1.7.76,1.7,1.7c0,.31-.08.59-.22.84-.29.51-.84.86-1.48.86h0Z"/><path class="cls-5" d="m96.83,30.5c-.94,0-1.7-.76-1.7-1.7s.76-1.7,1.7-1.7,1.7.76,1.7,1.7-.76,1.7-1.7,1.7h0Z"/><path class="cls-5" d="m96.83,37.29c-.94,0-1.7-.76-1.7-1.7s.76-1.7,1.7-1.7,1.7.76,1.7,1.7-.76,1.7-1.7,1.7h0Z"/><path class="cls-5" d="m96.83,44.08c-.94,0-1.7-.76-1.7-1.7s.76-1.7,1.7-1.7,1.7.76,1.7,1.7-.76,1.7-1.7,1.7h0Z"/><path class="cls-5" d="m96.83,50.87c-.94,0-1.7-.76-1.7-1.7s.76-1.7,1.7-1.7,1.7.76,1.7,1.7-.76,1.7-1.7,1.7h0Z"/><path class="cls-5" d="m96.83,57.66c-.94,0-1.7-.76-1.7-1.7s.76-1.7,1.7-1.7,1.7.76,1.7,1.7-.76,1.7-1.7,1.7h0Z"/><path class="cls-5" d="m96.83,64.45c-.94,0-1.7-.76-1.7-1.7s.76-1.7,1.7-1.7,1.7.76,1.7,1.7-.76,1.7-1.7,1.7h0Z"/><path class="cls-5" d="m96.83,71.24c-.94,0-1.7-.76-1.7-1.7s.76-1.7,1.7-1.7,1.7.76,1.7,1.7-.76,1.7-1.7,1.7h0Z"/><path class="cls-5" d="m96.83,78.03c-.94,0-1.7-.76-1.7-1.7s.76-1.7,1.7-1.7,1.7.76,1.7,1.7-.76,1.7-1.7,1.7h0Z"/><path class="cls-5" d="m96.83,84.82c-.94,0-1.7-.76-1.7-1.7s.76-1.7,1.7-1.7,1.7.76,1.7,1.7-.76,1.7-1.7,1.7h0Z"/><path class="cls-5" d="m96.83,91.61c-.94,0-1.7-.76-1.7-1.7s.76-1.7,1.7-1.7,1.7.76,1.7,1.7-.76,1.7-1.7,1.7h0Z"/><path class="cls-5" d="m88.34,96.7c0-.94.76-1.7,1.7-1.7s1.7.76,1.7,1.7-.76,1.7-1.7,1.7-1.7-.76-1.7-1.7h0Z"/><path class="cls-5" d="m81.55,96.7c0-.94.76-1.7,1.7-1.7s1.7.76,1.7,1.7-.76,1.7-1.7,1.7-1.7-.76-1.7-1.7h0Z"/><path class="cls-5" d="m74.76,96.7c0-.94.76-1.7,1.7-1.7s1.7.76,1.7,1.7-.76,1.7-1.7,1.7-1.7-.76-1.7-1.7h0Z"/><path class="cls-5" d="m67.97,96.7c0-.94.76-1.7,1.7-1.7s1.7.76,1.7,1.7-.76,1.7-1.7,1.7-1.7-.76-1.7-1.7h0Z"/><path class="cls-5" d="m61.18,96.7c0-.94.76-1.7,1.7-1.7s1.7.76,1.7,1.7-.76,1.7-1.7,1.7-1.7-.76-1.7-1.7h0Z"/><path class="cls-5" d="m23.77,15.28c0,.94-.76,1.7-1.7,1.7s-1.7-.76-1.7-1.7.76-1.7,1.7-1.7,1.7.76,1.7,1.7h0Z"/><path class="cls-5" d="m17.04,15.28c0,.94-.76,1.7-1.7,1.7s-1.7-.76-1.7-1.7.76-1.7,1.7-1.7,1.7.76,1.7,1.7h0Z"/><path class="cls-5" d="m30.56,15.28c0,.94-.76,1.7-1.7,1.7s-1.7-.76-1.7-1.7.76-1.7,1.7-1.7,1.7.76,1.7,1.7h0Z"/><path class="cls-5" d="m37.35,15.28c0,.94-.76,1.7-1.7,1.7s-1.7-.76-1.7-1.7.76-1.7,1.7-1.7,1.7.76,1.7,1.7h0Z"/><path class="cls-5" d="m44.14,15.28c0,.94-.76,1.7-1.7,1.7s-1.7-.76-1.7-1.7.76-1.7,1.7-1.7,1.7.76,1.7,1.7h0Z"/><path class="cls-5" d="m50.93,15.28c0,.94-.76,1.7-1.7,1.7s-1.7-.76-1.7-1.7.76-1.7,1.7-1.7,1.7.76,1.7,1.7h0Z"/><path class="cls-5" d="m13.65,96.7c0-.94.76-1.7,1.7-1.7s1.7.76,1.7,1.7-.76,1.7-1.7,1.7-1.7-.76-1.7-1.7h0Z"/><path class="cls-5" d="m47.6,96.7c0-.94.76-1.7,1.7-1.7s1.7.76,1.7,1.7-.76,1.7-1.7,1.7-1.7-.76-1.7-1.7h0Z"/><path class="cls-5" d="m40.81,96.7c0-.94.76-1.7,1.7-1.7s1.7.76,1.7,1.7-.76,1.7-1.7,1.7-1.7-.76-1.7-1.7h0Z"/><path class="cls-5" d="m34.02,96.7c0-.94.76-1.7,1.7-1.7s1.7.76,1.7,1.7-.76,1.7-1.7,1.7-1.7-.76-1.7-1.7h0Z"/><path class="cls-5" d="m27.23,96.7c0-.94.76-1.7,1.7-1.7s1.7.76,1.7,1.7-.76,1.7-1.7,1.7-1.7-.76-1.7-1.7h0Z"/><path class="cls-5" d="m20.44,96.7c0-.94.76-1.7,1.7-1.7s1.7.76,1.7,1.7-.76,1.7-1.7,1.7-1.7-.76-1.7-1.7h0Z"/><path class="cls-5" d="m15.28,88.27c.94,0,1.7.76,1.7,1.7s-.76,1.7-1.7,1.7-1.7-.76-1.7-1.7.76-1.7,1.7-1.7h0Z"/><path class="cls-5" d="m15.28,81.48c.94,0,1.7.76,1.7,1.7s-.76,1.7-1.7,1.7-1.7-.76-1.7-1.7.76-1.7,1.7-1.7h0Z"/><path class="cls-5" d="m15.28,74.69c.94,0,1.7.76,1.7,1.7s-.76,1.7-1.7,1.7-1.7-.76-1.7-1.7.76-1.7,1.7-1.7h0Z"/><path class="cls-5" d="m15.28,67.9c.94,0,1.7.76,1.7,1.7s-.76,1.7-1.7,1.7-1.7-.76-1.7-1.7.76-1.7,1.7-1.7h0Z"/><path class="cls-5" d="m15.28,61.11c.94,0,1.7.76,1.7,1.7s-.76,1.7-1.7,1.7-1.7-.76-1.7-1.7.76-1.7,1.7-1.7h0Z"/><path class="cls-5" d="m15.28,54.32c.94,0,1.7.76,1.7,1.7s-.76,1.7-1.7,1.7-1.7-.76-1.7-1.7.76-1.7,1.7-1.7h0Z"/><path class="cls-5" d="m15.28,47.53c.94,0,1.7.76,1.7,1.7s-.76,1.7-1.7,1.7-1.7-.76-1.7-1.7.76-1.7,1.7-1.7h0Z"/><path class="cls-5" d="m15.28,40.74c.94,0,1.7.76,1.7,1.7s-.76,1.7-1.7,1.7-1.7-.76-1.7-1.7.76-1.7,1.7-1.7h0Z"/><path class="cls-5" d="m15.28,33.95c.94,0,1.7.76,1.7,1.7s-.76,1.7-1.7,1.7-1.7-.76-1.7-1.7.76-1.7,1.7-1.7h0Z"/><path class="cls-5" d="m15.28,27.16c.94,0,1.7.76,1.7,1.7s-.76,1.7-1.7,1.7-1.7-.76-1.7-1.7.76-1.7,1.7-1.7h0Z"/><path class="cls-5" d="m15.28,20.37c.94,0,1.7.76,1.7,1.7,0,.23-.04.45-.13.65-.26.62-.86,1.05-1.57,1.05s-1.32-.44-1.57-1.06c-.08-.2-.13-.41-.13-.64,0-.94.76-1.7,1.7-1.7h0Z"/><path class="cls-3" d="m78.03,47.19c-1.2-2.89-3.08-5.57-5.26-7.74-2.18-2.18-4.96-3.81-7.85-5.01-2.79-1.16-5.89-1.74-9.09-1.74s-6.5.12-9.28,1.27c-2.89,1.2-5.3,3.47-7.48,5.65-2.18,2.18-4.71,4.48-5.9,7.37-1.16,2.79-.78,6.18-.78,9.39s.23,6.35,1.39,9.13c1.2,2.89,3.64,4.93,5.81,7.11,2.18,2.18,4.15,4.78,7.04,5.98,2.79,1.16,6,1.94,9.2,1.94s6.35-.95,9.13-2.11c2.89-1.2,5.5-3.07,7.67-5.24,2.18-2.18,3.93-4.83,5.13-7.72,1.16-2.79,2.48-5.88,2.48-9.09s-1.06-6.41-2.22-9.19Zm-15.49,22.85l-5.08-.75,1.45-9.82-10.63,8.18-3.13-4.09,9.32-7.18-9.32-7.18,3.13-4.09,10.63,8.18-1.45-9.82,5.08-.75,2.02,13.66-2.02,13.66Z"/></g></svg>