<?xml version="1.0" encoding="UTF-8"?><svg id="Layer_2" xmlns="http://www.w3.org/2000/svg" viewBox="0 0 155.91 172.44"><defs><style>.cls-1,.cls-2{fill:#49e3c4;}.cls-3{fill:#285e56;}.cls-3,.cls-2,.cls-4{fill-rule:evenodd;}.cls-4{fill:#fff;}</style></defs><g id="Layer_1-2"><path class="cls-2" d="m91.24,110.02c-.06,2.04-1.44,3.89-3.5,4.44-2.06.55-4.18-.36-5.25-2.09-.58,1.95-2.39,3.38-4.53,3.38s-3.95-1.43-4.53-3.38c-1.07,1.73-3.19,2.65-5.25,2.1-2.06-.55-3.44-2.4-3.5-4.44-1.48,1.4-3.76,1.74-5.62.67-1.85-1.07-2.71-3.21-2.23-5.19-1.79.97-4.08.7-5.59-.81-1.52-1.51-1.79-3.8-.81-5.6-1.98.48-4.13-.38-5.19-2.23-1.07-1.85-.74-4.14.66-5.62-2.04-.06-3.89-1.44-4.44-3.5-.55-2.06.36-4.18,2.1-5.25-1.96-.58-3.38-2.39-3.38-4.53s1.43-3.95,3.38-4.53c-1.73-1.07-2.65-3.19-2.1-5.25.55-2.06,2.41-3.44,4.44-3.5-1.4-1.48-1.74-3.77-.66-5.62,1.07-1.85,3.21-2.71,5.19-2.23-.97-1.79-.7-4.08.81-5.59,1.51-1.52,3.8-1.79,5.59-.81-.47-1.98.38-4.12,2.23-5.19,1.85-1.07,4.14-.74,5.62.67.06-2.04,1.44-3.89,3.5-4.44,2.06-.55,4.19.36,5.25,2.1.58-1.96,2.39-3.39,4.53-3.39s3.95,1.43,4.53,3.39c1.07-1.73,3.19-2.65,5.25-2.1,2.06.55,3.44,2.41,3.5,4.44,1.48-1.4,3.77-1.74,5.62-.67,1.85,1.07,2.71,3.21,2.23,5.19,1.79-.97,4.08-.7,5.59.81,1.51,1.51,1.79,3.8.81,5.59,1.98-.47,4.12.38,5.19,2.23,1.07,1.85.74,4.14-.67,5.62,2.03.06,3.89,1.44,4.44,3.5.55,2.06-.36,4.18-2.1,5.25,1.96.58,3.39,2.39,3.39,4.53s-1.43,3.95-3.39,4.53c1.73,1.07,2.65,3.19,2.1,5.25-.55,2.06-2.41,3.44-4.44,3.5,1.4,1.48,1.74,3.76.67,5.62-1.07,1.85-3.21,2.71-5.19,2.23.97,1.79.7,4.08-.81,5.6-1.52,1.51-3.8,1.79-5.59.81.47,1.98-.38,4.13-2.23,5.19-1.85,1.07-4.14.74-5.62-.67h0Zm61.7-72.23h.58v14.18h-.58c-2.03,3.67-8.77,2.95-8.84-2.33v-9.54c.07-5.25,6.81-5.97,8.84-2.3h0Zm0,66.14h.58v14.17h-.59c-2.03,3.65-8.77,2.96-8.84-2.33v-9.54c.07-5.22,6.81-5.97,8.84-2.3h0Z"/><path class="cls-4" d="m134.65,11.81c5.2,0,9.45,4.25,9.45,9.45v113.39c0,5.19-4.25,9.45-9.45,9.45H21.26c-5.2,0-9.45-4.25-9.45-9.45V21.26c0-5.2,4.25-9.45,9.45-9.45h113.39Zm-56.69,28.35c-20.87,0-37.79,16.92-37.79,37.8s16.92,37.79,37.79,37.79,37.8-16.92,37.8-37.79-16.92-37.8-37.8-37.8h0Z"/><path class="cls-4" d="m144.1,102.96v-50.03l3.15,1.11c1,.35,2.14.35,3.14,0l3.16-1.14v50.1l-3.16-1.13c-1-.36-2.14-.36-3.15-.01l-3.15,1.11h0Zm9.45,16.07v15.61c0,10.39-8.5,18.9-18.9,18.9H21.26c-10.39,0-18.9-8.5-18.9-18.9V21.26C2.36,10.87,10.87,2.36,21.26,2.36h113.39c10.39,0,18.9,8.5,18.9,18.9v15.6l-3.16-1.13c-1-.36-2.14-.36-3.15,0l-3.15,1.1v-15.56c0-5.2-4.25-9.45-9.45-9.45H21.26c-5.2,0-9.45,4.25-9.45,9.45v113.39c0,5.19,4.25,9.45,9.45,9.45h113.39c5.2,0,9.45-4.25,9.45-9.45v-15.56l3.15,1.11c1,.35,2.14.35,3.14-.01l3.16-1.14h0Z"/><path class="cls-3" d="m134.35,155.9l-2.07,16.53h-14.17l-2.07-16.53H39.86l-2.07,16.53h-14.17l-2.07-16.53h-.29c-11.7,0-21.26-9.56-21.26-21.26V21.26C0,9.56,9.56,0,21.26,0h113.39c11.7,0,21.26,9.56,21.26,21.26v113.39c0,11.69-9.56,21.26-21.26,21.26h-.3Z"/><path class="cls-3" d="m77.95,37.79c22.18,0,40.16,17.98,40.16,40.16s-17.98,40.16-40.16,40.16-40.16-17.98-40.16-40.16,17.98-40.16,40.16-40.16h0Z"/><path class="cls-4" d="m146.46,99.63c1.52-.53,3.21-.53,4.72.01v-43.38c-1.51.55-3.21.55-4.72.02v43.35h0Z"/><path class="cls-4" d="m151.18,122.4c-1.51.55-3.21.55-4.72.02v12.23c0,6.5-5.31,11.81-11.81,11.81H21.26c-6.5,0-11.81-5.31-11.81-11.81V21.26c0-6.5,5.31-11.81,11.81-11.81h113.39c6.5,0,11.81,5.31,11.81,11.81v12.23c1.52-.53,3.21-.53,4.72.01v-12.24c0-9.09-7.45-16.54-16.54-16.54H21.26c-9.09,0-16.53,7.44-16.53,16.54v113.39c0,9.09,7.44,16.53,16.53,16.53h113.39c9.09,0,16.54-7.44,16.54-16.53v-12.24h0Z"/><path class="cls-4" d="m134.65,14.17H21.26c-3.89,0-7.09,3.2-7.09,7.09v113.39c0,3.89,3.19,7.09,7.09,7.09h113.39c3.89,0,7.09-3.19,7.09-7.09V21.26c0-3.89-3.2-7.09-7.09-7.09h0Z"/><path class="cls-2" d="m146.46,106.27v9.51c.04,3.11,4.69,2.99,4.69-.03h0v-9.45h0c0-3.06-4.65-3.09-4.69-.03h0Z"/><path class="cls-2" d="m146.46,40.13v9.51c.04,3.09,4.69,3.01,4.69-.03h0v-9.45h0c0-3.04-4.65-3.12-4.69-.03h0Z"/><path class="cls-3" d="m77.95,132.2h.1c1.31,0,2.36,1.06,2.36,2.36s-1.06,2.36-2.36,2.36h-.1c-1.26-.05-2.27-1.09-2.27-2.36s1.01-2.31,2.27-2.36h0Z"/><path class="cls-3" d="m77.95,18.9h0c1.3,0,2.36,1.06,2.36,2.36s-1.06,2.36-2.36,2.36h0c-1.31,0-2.36-1.06-2.36-2.36s1.06-2.36,2.36-2.36h0Z"/><path class="cls-3" d="m134.74,136.92c-1.3,0-2.36-1.06-2.36-2.36s1.06-2.36,2.36-2.36,2.36,1.06,2.36,2.36-1.06,2.36-2.36,2.36h0Z"/><path class="cls-3" d="m137.01,21.26c0,1.3-1.06,2.36-2.36,2.36s-2.36-1.06-2.36-2.36,1.06-2.36,2.36-2.36,2.36,1.06,2.36,2.36h0Z"/><path class="cls-3" d="m89.76,21.26c0,1.3-1.06,2.36-2.36,2.36s-2.36-1.06-2.36-2.36,1.06-2.36,2.36-2.36,2.36,1.06,2.36,2.36h0Z"/><path class="cls-3" d="m78.33,34.29c24.58,0,44.5,19.93,44.5,44.51s-19.93,44.5-44.5,44.5-44.51-19.92-44.51-44.5,19.93-44.51,44.51-44.51h0Z"/><path class="cls-3" d="m99.21,21.26c0,1.3-1.06,2.36-2.36,2.36s-2.36-1.06-2.36-2.36,1.06-2.36,2.36-2.36,2.36,1.06,2.36,2.36h0Z"/><path class="cls-3" d="m108.66,21.26c0,1.3-1.06,2.36-2.36,2.36s-2.36-1.06-2.36-2.36,1.06-2.36,2.36-2.36,2.36,1.06,2.36,2.36h0Z"/><path class="cls-3" d="m118.11,21.26c0,1.3-1.06,2.36-2.36,2.36s-2.36-1.06-2.36-2.36,1.06-2.36,2.36-2.36,2.36,1.06,2.36,2.36h0Z"/><path class="cls-3" d="m127.56,21.26c0,1.3-1.06,2.36-2.36,2.36s-2.36-1.06-2.36-2.36,1.06-2.36,2.36-2.36,2.36,1.06,2.36,2.36h0Z"/><path class="cls-3" d="m134.74,32.99c-.88,0-1.65-.49-2.06-1.2-.19-.34-.3-.74-.3-1.16,0-1.3,1.06-2.36,2.36-2.36s2.36,1.06,2.36,2.36c0,.42-.11.82-.3,1.17-.41.72-1.17,1.2-2.06,1.2h0Z"/><path class="cls-3" d="m134.74,42.44c-1.3,0-2.36-1.06-2.36-2.36s1.06-2.36,2.36-2.36,2.36,1.06,2.36,2.36-1.06,2.36-2.36,2.36h0Z"/><path class="cls-3" d="m134.74,51.89c-1.3,0-2.36-1.06-2.36-2.36s1.06-2.36,2.36-2.36,2.36,1.06,2.36,2.36-1.06,2.36-2.36,2.36h0Z"/><path class="cls-3" d="m134.74,61.34c-1.3,0-2.36-1.06-2.36-2.36s1.06-2.36,2.36-2.36,2.36,1.06,2.36,2.36-1.06,2.36-2.36,2.36h0Z"/><path class="cls-3" d="m134.74,70.78c-1.3,0-2.36-1.06-2.36-2.36s1.06-2.36,2.36-2.36,2.36,1.06,2.36,2.36-1.06,2.36-2.36,2.36h0Z"/><path class="cls-3" d="m134.74,80.23c-1.3,0-2.36-1.06-2.36-2.36s1.06-2.36,2.36-2.36,2.36,1.06,2.36,2.36-1.06,2.36-2.36,2.36h0Z"/><path class="cls-3" d="m134.74,89.68c-1.3,0-2.36-1.06-2.36-2.36s1.06-2.36,2.36-2.36,2.36,1.06,2.36,2.36-1.06,2.36-2.36,2.36h0Z"/><path class="cls-3" d="m134.74,99.13c-1.3,0-2.36-1.06-2.36-2.36s1.06-2.36,2.36-2.36,2.36,1.06,2.36,2.36-1.06,2.36-2.36,2.36h0Z"/><path class="cls-3" d="m134.74,108.58c-1.3,0-2.36-1.06-2.36-2.36s1.06-2.36,2.36-2.36,2.36,1.06,2.36,2.36-1.06,2.36-2.36,2.36h0Z"/><path class="cls-3" d="m134.74,118.03c-1.3,0-2.36-1.06-2.36-2.36s1.06-2.36,2.36-2.36,2.36,1.06,2.36,2.36-1.06,2.36-2.36,2.36h0Z"/><path class="cls-3" d="m134.74,127.48c-1.3,0-2.36-1.06-2.36-2.36s1.06-2.36,2.36-2.36,2.36,1.06,2.36,2.36-1.06,2.36-2.36,2.36h0Z"/><path class="cls-3" d="m122.93,134.56c0-1.3,1.06-2.36,2.36-2.36s2.36,1.06,2.36,2.36-1.06,2.36-2.36,2.36-2.36-1.06-2.36-2.36h0Z"/><path class="cls-3" d="m113.48,134.56c0-1.3,1.06-2.36,2.36-2.36s2.36,1.06,2.36,2.36-1.06,2.36-2.36,2.36-2.36-1.06-2.36-2.36h0Z"/><path class="cls-3" d="m104.04,134.56c0-1.3,1.06-2.36,2.36-2.36s2.36,1.06,2.36,2.36-1.06,2.36-2.36,2.36-2.36-1.06-2.36-2.36h0Z"/><path class="cls-3" d="m94.59,134.56c0-1.3,1.06-2.36,2.36-2.36s2.36,1.06,2.36,2.36-1.06,2.36-2.36,2.36-2.36-1.06-2.36-2.36h0Z"/><path class="cls-3" d="m85.14,134.56c0-1.3,1.06-2.36,2.36-2.36s2.36,1.06,2.36,2.36-1.06,2.36-2.36,2.36-2.36-1.06-2.36-2.36h0Z"/><path class="cls-3" d="m42.52,21.26c0,1.3-1.06,2.36-2.36,2.36s-2.36-1.06-2.36-2.36,1.06-2.36,2.36-2.36,2.36,1.06,2.36,2.36h0Z"/><path class="cls-3" d="m51.97,21.26c0,1.3-1.06,2.36-2.36,2.36s-2.36-1.06-2.36-2.36,1.06-2.36,2.36-2.36,2.36,1.06,2.36,2.36h0Z"/><path class="cls-3" d="m61.42,21.26c0,1.3-1.06,2.36-2.36,2.36s-2.36-1.06-2.36-2.36,1.06-2.36,2.36-2.36,2.36,1.06,2.36,2.36h0Z"/><path class="cls-3" d="m70.87,21.26c0,1.3-1.06,2.36-2.36,2.36s-2.36-1.06-2.36-2.36,1.06-2.36,2.36-2.36,2.36,1.06,2.36,2.36h0Z"/><path class="cls-3" d="m19,134.56c0-1.3,1.06-2.36,2.36-2.36s2.36,1.06,2.36,2.36-1.06,2.36-2.36,2.36-2.36-1.06-2.36-2.36h0Z"/><path class="cls-3" d="m66.24,134.56c0-1.3,1.06-2.36,2.36-2.36s2.36,1.06,2.36,2.36-1.06,2.36-2.36,2.36-2.36-1.06-2.36-2.36h0Z"/><path class="cls-3" d="m56.79,134.56c0-1.3,1.06-2.36,2.36-2.36s2.36,1.06,2.36,2.36-1.06,2.36-2.36,2.36-2.36-1.06-2.36-2.36h0Z"/><path class="cls-3" d="m47.34,134.56c0-1.3,1.06-2.36,2.36-2.36s2.36,1.06,2.36,2.36-1.06,2.36-2.36,2.36-2.36-1.06-2.36-2.36h0Z"/><path class="cls-3" d="m37.89,134.56c0-1.3,1.06-2.36,2.36-2.36s2.36,1.06,2.36,2.36-1.06,2.36-2.36,2.36-2.36-1.06-2.36-2.36h0Z"/><path class="cls-3" d="m28.44,134.56c0-1.3,1.06-2.36,2.36-2.36s2.36,1.06,2.36,2.36-1.06,2.36-2.36,2.36-2.36-1.06-2.36-2.36h0Z"/><path class="cls-3" d="m21.26,122.83c1.3,0,2.36,1.06,2.36,2.36s-1.06,2.36-2.36,2.36-2.36-1.06-2.36-2.36,1.06-2.36,2.36-2.36h0Z"/><path class="cls-3" d="m21.26,113.39c1.3,0,2.36,1.06,2.36,2.36s-1.06,2.36-2.36,2.36-2.36-1.06-2.36-2.36,1.06-2.36,2.36-2.36h0Z"/><path class="cls-3" d="m21.26,103.93c1.3,0,2.36,1.06,2.36,2.36s-1.06,2.36-2.36,2.36-2.36-1.06-2.36-2.36,1.06-2.36,2.36-2.36h0Z"/><path class="cls-3" d="m21.26,94.49c1.3,0,2.36,1.06,2.36,2.36s-1.06,2.36-2.36,2.36-2.36-1.06-2.36-2.36,1.06-2.36,2.36-2.36h0Z"/><path class="cls-3" d="m21.26,85.04c1.3,0,2.36,1.06,2.36,2.36s-1.06,2.36-2.36,2.36-2.36-1.06-2.36-2.36,1.06-2.36,2.36-2.36h0Z"/><path class="cls-3" d="m21.26,75.59c1.3,0,2.36,1.06,2.36,2.36s-1.06,2.36-2.36,2.36-2.36-1.06-2.36-2.36,1.06-2.36,2.36-2.36h0Z"/><path class="cls-3" d="m21.26,66.14c1.3,0,2.36,1.06,2.36,2.36s-1.06,2.36-2.36,2.36-2.36-1.06-2.36-2.36,1.06-2.36,2.36-2.36h0Z"/><path class="cls-3" d="m21.26,56.69c1.3,0,2.36,1.06,2.36,2.36s-1.06,2.36-2.36,2.36-2.36-1.06-2.36-2.36,1.06-2.36,2.36-2.36h0Z"/><path class="cls-3" d="m21.26,47.24c1.3,0,2.36,1.06,2.36,2.36s-1.06,2.36-2.36,2.36-2.36-1.06-2.36-2.36,1.06-2.36,2.36-2.36h0Z"/><path class="cls-3" d="m21.26,37.79c1.3,0,2.36,1.06,2.36,2.36s-1.06,2.36-2.36,2.36-2.36-1.06-2.36-2.36,1.06-2.36,2.36-2.36h0Z"/><path class="cls-1" d="m108.58,65.67c-1.67-4.02-4.29-7.75-7.32-10.77-3.03-3.03-6.9-5.3-10.92-6.97-3.88-1.61-8.19-2.41-12.65-2.41s-9.04.16-12.91,1.77c-4.02,1.67-7.38,4.83-10.41,7.86-3.03,3.03-6.55,6.24-8.21,10.26-1.61,3.88-1.08,8.6-1.08,13.06s.33,8.83,1.93,12.71c1.67,4.02,5.06,6.86,8.09,9.89,3.03,3.03,5.77,6.65,9.79,8.32,3.88,1.61,8.35,2.7,12.81,2.7s8.83-1.32,12.71-2.93c4.02-1.67,7.65-4.27,10.68-7.3,3.03-3.03,5.47-6.73,7.14-10.75,1.61-3.88,3.45-8.19,3.45-12.64s-1.48-8.92-3.09-12.79Zm-21.55,31.8l-7.07-1.05,2.02-13.67-14.79,11.39-4.35-5.68,12.97-9.99-12.97-9.99,4.35-5.68,14.79,11.39-2.02-13.67,7.07-1.05,2.8,19-2.8,19Z"/><path class="cls-3" d="m21.26,18.9c1.3,0,2.36,1.06,2.36,2.36s-1.06,2.36-2.36,2.36-2.36-1.06-2.36-2.36,1.06-2.36,2.36-2.36h0Z"/><path class="cls-3" d="m33.07,21.26c0,1.3-1.06,2.36-2.36,2.36s-2.36-1.06-2.36-2.36,1.06-2.36,2.36-2.36,2.36,1.06,2.36,2.36h0Z"/><path class="cls-3" d="m21.26,28.35c1.3,0,2.36,1.06,2.36,2.36,0,.32-.06.63-.18.9-.36.86-1.2,1.46-2.18,1.46s-1.84-.61-2.19-1.47c-.11-.28-.17-.58-.17-.9,0-1.3,1.06-2.36,2.36-2.36h0Z"/></g></svg>