<?xml version="1.0" encoding="UTF-8"?><svg id="Layer_2" xmlns="http://www.w3.org/2000/svg" viewBox="0 0 393.64 116.63"><defs><style>.cls-1,.cls-2{fill:#fff;}.cls-3,.cls-4{fill:#285e56;}.cls-5,.cls-6{fill:#49e3c4;}.cls-4,.cls-6,.cls-2{fill-rule:evenodd;}</style></defs><g id="Layer_1-2"><path class="cls-5" d="m144.54,52.2l6.31-13.08.63-7.16h15.52l-5.25,6.91-8.64,15.8,8.5,16.26,5.39,6.98h-15.52l-.6-7.26-6.35-13.44v13.72l2.82,6.98h-15.9l2.82-6.98v-31.84l-2.82-7.12h15.9l-2.82,6.98v13.26Z"/><path class="cls-5" d="m188.76,77.91l2.12-5.08-.95-5.71h-8.96l-1.16,6.17,2.43,4.76-15.27-.28,3.14-5.75,7.79-34.31-2.43-5.75,20.14.14-1.73,5.4,7.62,34.49,3.6,6.07-16.33-.14Zm-6.52-17.88l6.81-.14-3.28-17.21-3.53,17.35Z"/><path class="cls-5" d="m223.27,68.53v-8.32c0-.61-.15-1.05-.44-1.32-.29-.27-.81-.41-1.53-.41h-6.35c-5.67,0-8.5-2.69-8.5-8.08v-10.47c0-5.31,3.03-7.97,9.1-7.97h8.78c6.09,0,9.13,2.66,9.13,7.97v8.82l-12.45-1.41,2.12-4.65v-1.3c0-1.2-.66-1.8-1.98-1.8h-2.43c-1.32,0-1.98.6-1.98,1.8v8.08c0,.63.15,1.08.44,1.34.29.26.8.39,1.53.39h6.21c3.08,0,5.29.66,6.65,1.99,1.35,1.33,2.03,3.29,2.03,5.87v10.86c0,5.34-3.03,8-9.1,8h-8.75c-6.11,0-9.17-2.67-9.17-8v-9.45l12.45,1.41-2.12,5.33v1.34c0,1.2.65,1.8,1.94,1.8h2.43c1.32,0,1.97-.6,1.97-1.8Z"/><path class="cls-1" d="m256.17,31.96h15.27l-3.31,7.05-6.98,31.77,1.23,7.12h-18.27l1.23-7.16-7.05-31.88-3.31-6.91h15.34l-1.62,7.05,4.51,25.64,4.58-25.53-1.62-7.16Z"/><path class="cls-1" d="m288.6,77.91l2.12-5.08-.95-5.71h-8.96l-1.16,6.17,2.43,4.76-15.27-.28,3.14-5.75,7.79-34.31-2.43-5.75,20.14.14-1.73,5.4,7.62,34.49,3.6,6.07-16.33-.14Zm-6.52-17.88l6.81-.14-3.28-17.21-3.53,17.35Z"/><path class="cls-1" d="m322.52,31.96h15.98l-2.82,6.84v31.1c0,5.34-3.06,8-9.17,8h-9.7c-6.07,0-9.1-2.67-9.1-8v-30.96l-2.82-6.98h15.97l-2.82,6.98v29.59c0,1.2.62,1.8,1.87,1.8h3.49c1.29,0,1.94-.6,1.94-1.8v-29.45l-2.82-7.12Z"/><path class="cls-1" d="m353.3,70.33h5.43l7.79-2.82,1.41,10.4h-27.72l2.82-6.98v-31.84l-2.82-7.12h15.9l-2.82,7.12v31.25Z"/><path class="cls-1" d="m393.64,31.96l-1.41,9.73-4.66-2.12h-3.77v31.14l2.82,7.19h-15.97l2.82-7.12v-31.21h-3.14l-5.25,2.12-1.41-9.73h29.97Z"/><path class="cls-6" d="m61.71,74.41c-.04,1.38-.97,2.63-2.37,3-1.39.37-2.83-.25-3.55-1.42-.39,1.32-1.62,2.29-3.06,2.29s-2.67-.97-3.06-2.29c-.72,1.17-2.16,1.79-3.55,1.42-1.39-.37-2.33-1.63-2.37-3-1,.95-2.55,1.17-3.8.45-1.25-.72-1.83-2.17-1.51-3.51-1.21.66-2.76.47-3.78-.55-1.03-1.02-1.21-2.57-.55-3.79-1.34.32-2.79-.26-3.51-1.51-.72-1.25-.5-2.8.45-3.8-1.38-.04-2.63-.97-3-2.37-.37-1.39.25-2.83,1.42-3.55-1.32-.39-2.29-1.62-2.29-3.06s.96-2.67,2.29-3.07c-1.17-.72-1.79-2.16-1.42-3.55.37-1.39,1.63-2.33,3-2.37-.95-1-1.17-2.55-.45-3.8.72-1.25,2.17-1.83,3.51-1.51-.66-1.21-.47-2.76.55-3.78,1.02-1.03,2.57-1.21,3.78-.55-.32-1.34.26-2.79,1.51-3.51,1.25-.72,2.8-.5,3.8.45.04-1.38.97-2.63,2.37-3.01,1.39-.37,2.83.25,3.55,1.42.39-1.32,1.61-2.29,3.06-2.29s2.67.97,3.06,2.29c.72-1.17,2.16-1.79,3.55-1.42,1.39.37,2.33,1.63,2.37,3.01,1-.95,2.55-1.17,3.8-.45,1.25.72,1.83,2.17,1.51,3.51,1.21-.66,2.76-.48,3.78.55,1.02,1.02,1.21,2.57.55,3.78,1.34-.32,2.79.26,3.51,1.51.72,1.25.5,2.8-.45,3.8,1.38.04,2.63.97,3.01,2.37.37,1.39-.25,2.83-1.42,3.55,1.32.39,2.29,1.62,2.29,3.06s-.97,2.67-2.29,3.06c1.17.72,1.79,2.16,1.42,3.55-.37,1.39-1.63,2.33-3.01,2.37.95,1,1.17,2.55.45,3.8-.72,1.25-2.17,1.83-3.51,1.51.66,1.21.47,2.76-.55,3.79-1.03,1.02-2.57,1.21-3.78.55.32,1.34-.26,2.79-1.51,3.51-1.25.72-2.8.5-3.8-.45h0Zm41.73-48.85h.39v9.59h-.39c-1.37,2.48-5.93,1.99-5.98-1.58v-6.45c.04-3.55,4.61-4.04,5.98-1.56h0Zm0,44.74h.39v9.59h-.4c-1.38,2.47-5.93,2-5.98-1.58v-6.45c.04-3.53,4.61-4.04,5.98-1.56h0Z"/><path class="cls-2" d="m91.07,7.99c3.52,0,6.39,2.88,6.39,6.39v76.69c0,3.51-2.88,6.39-6.39,6.39H14.38c-3.52,0-6.39-2.88-6.39-6.39V14.38c0-3.52,2.88-6.39,6.39-6.39h76.69Zm-38.35,19.17c-14.12,0-25.56,11.45-25.56,25.56s11.45,25.56,25.56,25.56,25.56-11.45,25.56-25.56-11.45-25.56-25.56-25.56h0Z"/><path class="cls-2" d="m97.46,69.64v-33.84l2.13.75c.68.24,1.44.24,2.12,0l2.14-.77v33.89l-2.14-.76c-.68-.24-1.45-.25-2.13,0l-2.13.75h0Zm6.39,10.87v10.56c0,7.03-5.75,12.78-12.78,12.78H14.38c-7.03,0-12.78-5.75-12.78-12.78V14.38C1.6,7.35,7.35,1.6,14.38,1.6h76.69c7.03,0,12.78,5.75,12.78,12.78v10.55l-2.14-.77c-.68-.24-1.45-.25-2.13,0l-2.13.75v-10.52c0-3.52-2.88-6.39-6.39-6.39H14.38c-3.52,0-6.39,2.88-6.39,6.39v76.69c0,3.51,2.88,6.39,6.39,6.39h76.69c3.51,0,6.39-2.88,6.39-6.39v-10.53l2.13.75c.68.24,1.44.24,2.12,0l2.14-.77h0Z"/><path class="cls-4" d="m14.38,12.78c.88,0,1.6.72,1.6,1.6s-.71,1.6-1.6,1.6-1.6-.71-1.6-1.6.72-1.6,1.6-1.6h0Z"/><path class="cls-4" d="m52.73,25.56c15,0,27.16,12.16,27.16,27.16s-12.16,27.16-27.16,27.16-27.16-12.16-27.16-27.16,12.16-27.16,27.16-27.16h0Z"/><path class="cls-6" d="m90.87,105.45l-1.4,11.18h-9.59l-1.4-11.18H26.96l-1.4,11.18h-9.59l-1.4-11.18h-.2c-7.91,0-14.38-6.47-14.38-14.38V14.38C0,6.47,6.47,0,14.38,0h76.69c7.91,0,14.38,6.47,14.38,14.38v76.69c0,7.91-6.47,14.38-14.38,14.38h-.2Z"/><path class="cls-2" d="m99.06,67.39c1.03-.36,2.17-.36,3.19,0v-29.34c-1.02.37-2.17.37-3.19.01v29.32h0Z"/><path class="cls-2" d="m102.26,82.79c-1.02.37-2.17.37-3.19.01v8.27c0,4.4-3.59,7.99-7.99,7.99H14.38c-4.4,0-7.99-3.59-7.99-7.99V14.38c0-4.4,3.59-7.99,7.99-7.99h76.69c4.4,0,7.99,3.59,7.99,7.99v8.27c1.03-.36,2.17-.36,3.19,0v-8.28c0-6.15-5.04-11.19-11.18-11.19H14.38c-6.15,0-11.18,5.04-11.18,11.19v76.69c0,6.15,5.04,11.18,11.18,11.18h76.69c6.15,0,11.18-5.04,11.18-11.18v-8.28h0Z"/><path class="cls-3" d="m100.64,70.33c.79,0,1.59.52,1.59,1.56h0v6.39h0c0,1.03-.81,1.56-1.6,1.56s-1.55-.51-1.56-1.54v-6.43c.01-1.03.8-1.54,1.58-1.54m0-1.35c-1.65,0-2.92,1.24-2.94,2.88v6.43c.02,1.68,1.27,2.92,2.92,2.92,1.18,0,2.16-.62,2.64-1.56h.31v-1.35s0-6.39,0-6.39v-1.35h-.32c-.48-.94-1.45-1.56-2.63-1.56h0Z"/><path class="cls-3" d="m100.63,25.6c.8,0,1.6.53,1.6,1.56h0v6.39h0c0,1.04-.8,1.57-1.6,1.57s-1.56-.51-1.57-1.55v-6.43c.01-1.04.79-1.54,1.57-1.54m0-1.35c-1.65,0-2.9,1.24-2.92,2.88v6.43c.02,1.68,1.28,2.92,2.93,2.92,1.18,0,2.16-.62,2.64-1.57h.31v-1.35s0-6.39,0-6.39v-1.35h-.32c-.48-.95-1.45-1.56-2.64-1.56h0Z"/><path class="cls-2" d="m91.07,9.59H14.38c-2.63,0-4.79,2.16-4.79,4.79v76.69c0,2.63,2.16,4.79,4.79,4.79h76.69c2.63,0,4.79-2.16,4.79-4.79V14.38c0-2.63-2.16-4.79-4.79-4.79h0Z"/><path class="cls-4" d="m52.73,89.42h.06c.88,0,1.6.71,1.6,1.6s-.71,1.6-1.6,1.6h-.06c-.85-.04-1.53-.74-1.53-1.6s.68-1.56,1.53-1.6h0Z"/><path class="cls-4" d="m52.73,12.78h0c.88,0,1.6.72,1.6,1.6s-.71,1.6-1.6,1.6h0c-.88,0-1.6-.71-1.6-1.6s.71-1.6,1.6-1.6h0Z"/><path class="cls-4" d="m91.14,92.61c-.88,0-1.6-.71-1.6-1.6s.72-1.6,1.6-1.6,1.6.71,1.6,1.6-.72,1.6-1.6,1.6h0Z"/><path class="cls-4" d="m92.67,14.38c0,.88-.72,1.6-1.6,1.6s-1.6-.71-1.6-1.6.72-1.6,1.6-1.6,1.6.72,1.6,1.6h0Z"/><path class="cls-4" d="m16.31,14.38c0,.88-.72,1.6-1.6,1.6s-1.6-.71-1.6-1.6.72-1.6,1.6-1.6,1.6.72,1.6,1.6h0Z"/><path class="cls-4" d="m60.71,14.38c0,.88-.72,1.6-1.6,1.6s-1.6-.71-1.6-1.6.72-1.6,1.6-1.6,1.6.72,1.6,1.6h0Z"/><path class="cls-4" d="m52.98,23.19c16.62,0,30.1,13.48,30.1,30.1s-13.48,30.1-30.1,30.1-30.1-13.48-30.1-30.1,13.48-30.1,30.1-30.1h0Z"/><path class="cls-4" d="m67.11,14.38c0,.88-.71,1.6-1.6,1.6s-1.6-.71-1.6-1.6.71-1.6,1.6-1.6,1.6.72,1.6,1.6h0Z"/><path class="cls-4" d="m73.5,14.38c0,.88-.72,1.6-1.6,1.6s-1.6-.71-1.6-1.6.71-1.6,1.6-1.6,1.6.72,1.6,1.6h0Z"/><path class="cls-4" d="m79.89,14.38c0,.88-.72,1.6-1.6,1.6s-1.6-.71-1.6-1.6.71-1.6,1.6-1.6,1.6.72,1.6,1.6h0Z"/><path class="cls-4" d="m86.28,14.38c0,.88-.72,1.6-1.6,1.6s-1.6-.71-1.6-1.6.71-1.6,1.6-1.6,1.6.72,1.6,1.6h0Z"/><path class="cls-4" d="m91.14,22.31c-.6,0-1.12-.33-1.39-.81-.13-.23-.21-.5-.21-.78,0-.88.72-1.6,1.6-1.6s1.6.71,1.6,1.6c0,.29-.08.56-.21.79-.28.48-.79.81-1.39.81h0Z"/><path class="cls-4" d="m91.14,28.7c-.88,0-1.6-.71-1.6-1.6s.72-1.6,1.6-1.6,1.6.72,1.6,1.6-.72,1.6-1.6,1.6h0Z"/><path class="cls-4" d="m91.14,35.09c-.88,0-1.6-.72-1.6-1.6s.72-1.6,1.6-1.6,1.6.71,1.6,1.6-.72,1.6-1.6,1.6h0Z"/><path class="cls-4" d="m91.14,41.49c-.88,0-1.6-.71-1.6-1.6s.72-1.6,1.6-1.6,1.6.72,1.6,1.6-.72,1.6-1.6,1.6h0Z"/><path class="cls-4" d="m91.14,47.88c-.88,0-1.6-.72-1.6-1.6s.72-1.6,1.6-1.6,1.6.71,1.6,1.6-.72,1.6-1.6,1.6h0Z"/><path class="cls-4" d="m91.14,54.27c-.88,0-1.6-.71-1.6-1.6s.72-1.6,1.6-1.6,1.6.72,1.6,1.6-.72,1.6-1.6,1.6h0Z"/><path class="cls-4" d="m91.14,60.66c-.88,0-1.6-.71-1.6-1.6s.72-1.6,1.6-1.6,1.6.72,1.6,1.6-.72,1.6-1.6,1.6h0Z"/><path class="cls-4" d="m91.14,67.05c-.88,0-1.6-.72-1.6-1.6s.72-1.6,1.6-1.6,1.6.72,1.6,1.6-.72,1.6-1.6,1.6h0Z"/><path class="cls-4" d="m91.14,73.44c-.88,0-1.6-.71-1.6-1.6s.72-1.6,1.6-1.6,1.6.72,1.6,1.6-.72,1.6-1.6,1.6h0Z"/><path class="cls-4" d="m91.14,79.83c-.88,0-1.6-.71-1.6-1.6s.72-1.6,1.6-1.6,1.6.71,1.6,1.6-.72,1.6-1.6,1.6h0Z"/><path class="cls-4" d="m91.14,86.22c-.88,0-1.6-.72-1.6-1.6s.72-1.6,1.6-1.6,1.6.72,1.6,1.6-.72,1.6-1.6,1.6h0Z"/><path class="cls-4" d="m83.15,91.02c0-.88.72-1.6,1.6-1.6s1.6.71,1.6,1.6-.71,1.6-1.6,1.6-1.6-.71-1.6-1.6h0Z"/><path class="cls-4" d="m76.76,91.02c0-.88.72-1.6,1.6-1.6s1.6.71,1.6,1.6-.71,1.6-1.6,1.6-1.6-.71-1.6-1.6h0Z"/><path class="cls-4" d="m70.37,91.02c0-.88.71-1.6,1.6-1.6s1.6.71,1.6,1.6-.72,1.6-1.6,1.6-1.6-.71-1.6-1.6h0Z"/><path class="cls-4" d="m63.98,91.02c0-.88.71-1.6,1.6-1.6s1.6.71,1.6,1.6-.71,1.6-1.6,1.6-1.6-.71-1.6-1.6h0Z"/><path class="cls-4" d="m57.58,91.02c0-.88.72-1.6,1.6-1.6s1.6.71,1.6,1.6-.72,1.6-1.6,1.6-1.6-.71-1.6-1.6h0Z"/><path class="cls-4" d="m22.37,14.38c0,.88-.72,1.6-1.6,1.6s-1.6-.71-1.6-1.6.72-1.6,1.6-1.6,1.6.72,1.6,1.6h0Z"/><path class="cls-4" d="m28.76,14.38c0,.88-.71,1.6-1.6,1.6s-1.6-.71-1.6-1.6.71-1.6,1.6-1.6,1.6.72,1.6,1.6h0Z"/><path class="cls-4" d="m35.15,14.38c0,.88-.72,1.6-1.6,1.6s-1.6-.71-1.6-1.6.71-1.6,1.6-1.6,1.6.72,1.6,1.6h0Z"/><path class="cls-4" d="m41.54,14.38c0,.88-.72,1.6-1.6,1.6s-1.6-.71-1.6-1.6.72-1.6,1.6-1.6,1.6.72,1.6,1.6h0Z"/><path class="cls-4" d="m47.93,14.38c0,.88-.72,1.6-1.6,1.6s-1.6-.71-1.6-1.6.71-1.6,1.6-1.6,1.6.72,1.6,1.6h0Z"/><path class="cls-4" d="m12.85,91.02c0-.88.71-1.6,1.6-1.6s1.6.71,1.6,1.6-.71,1.6-1.6,1.6-1.6-.71-1.6-1.6h0Z"/><path class="cls-4" d="m44.8,91.02c0-.88.72-1.6,1.6-1.6s1.6.71,1.6,1.6-.71,1.6-1.6,1.6-1.6-.71-1.6-1.6h0Z"/><path class="cls-4" d="m38.41,91.02c0-.88.72-1.6,1.6-1.6s1.6.71,1.6,1.6-.72,1.6-1.6,1.6-1.6-.71-1.6-1.6h0Z"/><path class="cls-4" d="m32.02,91.02c0-.88.71-1.6,1.6-1.6s1.6.71,1.6,1.6-.71,1.6-1.6,1.6-1.6-.71-1.6-1.6h0Z"/><path class="cls-4" d="m25.63,91.02c0-.88.71-1.6,1.6-1.6s1.6.71,1.6,1.6-.72,1.6-1.6,1.6-1.6-.71-1.6-1.6h0Z"/><path class="cls-4" d="m19.24,91.02c0-.88.72-1.6,1.6-1.6s1.6.71,1.6,1.6-.71,1.6-1.6,1.6-1.6-.71-1.6-1.6h0Z"/><path class="cls-4" d="m14.38,83.08c.88,0,1.6.71,1.6,1.6s-.71,1.6-1.6,1.6-1.6-.71-1.6-1.6.72-1.6,1.6-1.6h0Z"/><path class="cls-4" d="m14.38,76.69c.88,0,1.6.71,1.6,1.6s-.71,1.6-1.6,1.6-1.6-.71-1.6-1.6.72-1.6,1.6-1.6h0Z"/><path class="cls-4" d="m14.38,70.3c.88,0,1.6.72,1.6,1.6s-.71,1.6-1.6,1.6-1.6-.71-1.6-1.6.72-1.6,1.6-1.6h0Z"/><path class="cls-4" d="m14.38,63.91c.88,0,1.6.71,1.6,1.6s-.71,1.6-1.6,1.6-1.6-.71-1.6-1.6.72-1.6,1.6-1.6h0Z"/><path class="cls-4" d="m14.38,57.52c.88,0,1.6.72,1.6,1.6s-.71,1.6-1.6,1.6-1.6-.71-1.6-1.6.72-1.6,1.6-1.6h0Z"/><path class="cls-4" d="m14.38,51.13c.88,0,1.6.72,1.6,1.6s-.71,1.6-1.6,1.6-1.6-.72-1.6-1.6.72-1.6,1.6-1.6h0Z"/><path class="cls-4" d="m14.38,44.74c.88,0,1.6.72,1.6,1.6s-.71,1.6-1.6,1.6-1.6-.71-1.6-1.6.72-1.6,1.6-1.6h0Z"/><path class="cls-4" d="m14.38,38.34c.88,0,1.6.72,1.6,1.6s-.71,1.6-1.6,1.6-1.6-.72-1.6-1.6.72-1.6,1.6-1.6h0Z"/><path class="cls-4" d="m14.38,31.95c.88,0,1.6.71,1.6,1.6s-.71,1.6-1.6,1.6-1.6-.72-1.6-1.6.72-1.6,1.6-1.6h0Z"/><path class="cls-4" d="m14.38,25.56c.88,0,1.6.72,1.6,1.6s-.71,1.6-1.6,1.6-1.6-.71-1.6-1.6.72-1.6,1.6-1.6h0Z"/><path class="cls-4" d="m14.38,19.17c.88,0,1.6.71,1.6,1.6,0,.22-.04.42-.12.61-.24.58-.81.99-1.48.99s-1.24-.41-1.48-.99c-.08-.19-.12-.39-.12-.61,0-.88.72-1.6,1.6-1.6h0Z"/><path class="cls-5" d="m73.44,44.42c-1.13-2.72-2.9-5.24-4.95-7.29-2.05-2.05-4.67-3.58-7.39-4.71-2.62-1.09-5.54-1.63-8.55-1.63s-6.11.11-8.74,1.2c-2.72,1.13-4.99,3.27-7.04,5.31-2.05,2.05-4.43,4.22-5.56,6.94-1.09,2.62-.73,5.82-.73,8.84s.22,5.97,1.31,8.6c1.13,2.72,3.42,4.64,5.47,6.69,2.05,2.05,3.91,4.5,6.62,5.63,2.62,1.09,5.65,1.83,8.66,1.83s5.98-.89,8.6-1.98c2.72-1.13,5.17-2.89,7.22-4.94,2.05-2.05,3.7-4.55,4.83-7.27,1.09-2.62,2.33-5.54,2.33-8.55s-1-6.03-2.09-8.65Zm-14.58,21.51l-4.78-.71,1.36-9.24-10,7.7-2.94-3.84,8.77-6.76-8.77-6.76,2.94-3.84,10,7.7-1.36-9.24,4.78-.71,1.9,12.85-1.9,12.85Z"/></g></svg>